<svg width="260" height="90" viewBox="0 0 260 90" fill="none" xmlns="http://www.w3.org/2000/svg">
<path d="M29.75 30C29.75 27.9 29.05 26.15 27.65 24.75C26.25 23.35 24.5 22.65 22.4 22.65H0.7V16H22.4C24.3133 16 26.11 16.3733 27.79 17.12C29.5167 17.8667 31.01 18.87 32.27 20.13C33.53 21.39 34.5333 22.8833 35.28 24.61C36.0267 26.29 36.4 28.0867 36.4 30C36.4 31.9133 36.0267 33.7333 35.28 35.46C34.5333 37.14 33.53 38.61 32.27 39.87C31.01 41.13 29.5167 42.1333 27.79 42.88C26.11 43.6267 24.3133 44 22.4 44H12.95V65H6.3V37.35H22.4C24.5 37.35 26.25 36.65 27.65 35.25C29.05 33.85 29.75 32.1 29.75 30ZM51.0699 34.2C51.6299 33.4067 52.3299 32.7067 53.1699 32.1C53.8699 31.5867 54.7333 31.12 55.7599 30.7C56.8333 30.2333 58.0699 30 59.4699 30C60.8699 30 62.1999 30.3033 63.4599 30.91C64.7199 31.47 65.8399 32.2867 66.8199 33.36C67.7999 34.3867 68.5699 35.6467 69.1299 37.14C69.6899 38.5867 69.9699 40.1733 69.9699 41.9V65H63.6699V41.9C63.6699 40.3133 63.1333 38.9833 62.0599 37.91C60.9866 36.8367 59.6566 36.3 58.0699 36.3C56.9966 36.3 56.0166 36.4867 55.1299 36.86C54.2899 37.2333 53.5666 37.63 52.9599 38.05C52.2133 38.5633 51.5833 39.1467 51.0699 39.8V65H44.7699V22.3H39.8699V16H51.0699V34.2ZM87.4535 65C84.2802 65 81.7368 64.0433 79.8235 62.13C77.9102 60.2167 76.9535 57.6733 76.9535 54.5C76.9535 51.3267 77.9102 48.7833 79.8235 46.87C81.7368 44.9567 84.2802 44 87.4535 44H95.8535V41.9C95.8535 40.5 95.3868 39.3333 94.4535 38.4C93.5202 37.4667 92.3535 37 90.9535 37H81.8535V30.7H90.9535C94.3135 30.7 97.0202 31.7267 99.0735 33.78C101.127 35.8333 102.154 38.54 102.154 41.9V65H87.4535ZM87.4535 50.3C86.2402 50.3 85.2368 50.6967 84.4435 51.49C83.6502 52.2833 83.2535 53.2867 83.2535 54.5C83.2535 55.7133 83.6502 56.7167 84.4435 57.51C85.2368 58.3033 86.2402 58.7 87.4535 58.7H95.8535V50.3H87.4535ZM118.951 34.2C119.511 33.4067 120.211 32.7067 121.051 32.1C121.751 31.5867 122.614 31.12 123.641 30.7C124.714 30.2333 125.951 30 127.351 30C128.751 30 130.081 30.3033 131.341 30.91C132.601 31.47 133.721 32.2867 134.701 33.36C135.681 34.3867 136.451 35.6467 137.011 37.14C137.571 38.5867 137.851 40.1733 137.851 41.9V65H131.551V41.9C131.551 40.3133 131.014 38.9833 129.941 37.91C128.867 36.8367 127.537 36.3 125.951 36.3C124.877 36.3 123.897 36.4867 123.011 36.86C122.171 37.2333 121.447 37.63 120.841 38.05C120.094 38.5633 119.464 39.1467 118.951 39.8V65H112.651V37H107.751V30.7H118.951V34.2ZM149.034 37H142.734V30.7H149.034V19.5H155.334V30.7H162.334V37H155.334V53.1C155.334 54.6867 155.871 56.0167 156.944 57.09C158.018 58.1633 159.348 58.7 160.934 58.7H164.434V65H160.934C159.161 65 157.551 64.72 156.104 64.16C154.658 63.5533 153.398 62.7367 152.324 61.71C151.298 60.6367 150.481 59.3767 149.874 57.93C149.314 56.4833 149.034 54.8733 149.034 53.1V37ZM194.556 52.75C194.556 54.6633 194.23 56.4133 193.576 58C192.97 59.5867 192.083 60.9633 190.916 62.13C189.796 63.25 188.443 64.1367 186.856 64.79C185.27 65.3967 183.52 65.7 181.606 65.7C179.693 65.7 177.943 65.3967 176.356 64.79C174.77 64.1367 173.393 63.25 172.226 62.13C171.106 60.9633 170.22 59.5867 169.566 58C168.96 56.4133 168.656 54.6633 168.656 52.75V42.95C168.656 41.0367 168.96 39.2867 169.566 37.7C170.22 36.1133 171.106 34.76 172.226 33.64C173.393 32.4733 174.77 31.5867 176.356 30.98C177.943 30.3267 179.693 30 181.606 30C183.52 30 185.27 30.3267 186.856 30.98C188.443 31.5867 189.796 32.4733 190.916 33.64C192.083 34.76 192.97 36.1133 193.576 37.7C194.23 39.2867 194.556 41.0367 194.556 42.95V52.75ZM174.956 52.75C174.956 54.71 175.563 56.32 176.776 57.58C178.036 58.7933 179.646 59.4 181.606 59.4C183.566 59.4 185.153 58.7933 186.366 57.58C187.626 56.32 188.256 54.71 188.256 52.75V42.95C188.256 40.99 187.626 39.4033 186.366 38.19C185.153 36.93 183.566 36.3 181.606 36.3C179.646 36.3 178.036 36.93 176.776 38.19C175.563 39.4033 174.956 40.99 174.956 42.95V52.75ZM209.937 34.2C209.937 34.1533 210.1 33.92 210.427 33.5C210.8 33.0333 211.314 32.5433 211.967 32.03C212.667 31.5167 213.507 31.05 214.487 30.63C215.514 30.21 216.68 30 217.987 30C219.48 30 220.764 30.3033 221.837 30.91C222.91 31.47 223.82 32.1 224.567 32.8C225.407 33.64 226.13 34.5733 226.737 35.6C227.484 34.5733 228.324 33.64 229.257 32.8C230.05 32.1 231.03 31.47 232.197 30.91C233.364 30.3033 234.694 30 236.187 30C237.494 30 238.754 30.3033 239.967 30.91C241.18 31.47 242.254 32.2867 243.187 33.36C244.167 34.3867 244.937 35.6467 245.497 37.14C246.057 38.5867 246.337 40.1733 246.337 41.9V65H240.037V41.9C240.037 40.3133 239.5 38.9833 238.427 37.91C237.4 36.8367 236.187 36.3 234.787 36.3C233.807 36.3 232.92 36.4867 232.127 36.86C231.334 37.2333 230.634 37.63 230.027 38.05C229.327 38.5633 228.697 39.1467 228.137 39.8V65H221.837V41.9C221.837 40.3133 221.3 38.9833 220.227 37.91C219.2 36.8367 217.987 36.3 216.587 36.3C215.607 36.3 214.72 36.4867 213.927 36.86C213.134 37.2333 212.434 37.63 211.827 38.05C211.127 38.5633 210.497 39.1467 209.937 39.8V65H203.637V37H198.737V30.7H209.937V34.2Z" fill="#1D1D1F"/>
<path d="M27.65 24.75L28.3571 24.0429V24.0429L27.65 24.75ZM0.7 22.65H-0.3V23.65H0.7V22.65ZM0.7 16V15H-0.3V16H0.7ZM27.79 17.12L27.3838 18.0339L27.3931 18.0379L27.79 17.12ZM35.28 24.61L34.3621 25.0069L34.3662 25.0161L35.28 24.61ZM35.28 35.46L36.1939 35.8662L36.1979 35.8569L35.28 35.46ZM32.27 39.87L31.5629 39.1629L32.27 39.87ZM27.79 42.88L27.3931 41.9621L27.3839 41.9662L27.79 42.88ZM12.95 44V43H11.95V44H12.95ZM12.95 65V66H13.95V65H12.95ZM6.3 65H5.3V66H6.3V65ZM6.3 37.35V36.35H5.3V37.35H6.3ZM30.75 30C30.75 27.6526 29.9569 25.6427 28.3571 24.0429L26.9429 25.4571C28.1431 26.6573 28.75 28.1474 28.75 30H30.75ZM28.3571 24.0429C26.7573 22.4431 24.7474 21.65 22.4 21.65V23.65C24.2526 23.65 25.7427 24.2569 26.9429 25.4571L28.3571 24.0429ZM22.4 21.65H0.7V23.65H22.4V21.65ZM1.7 22.65V16H-0.3V22.65H1.7ZM0.7 17H22.4V15H0.7V17ZM22.4 17C24.1792 17 25.8369 17.3463 27.3839 18.0338L28.1961 16.2062C26.3831 15.4004 24.4474 15 22.4 15V17ZM27.3931 18.0379C29.0105 18.7373 30.397 19.6712 31.5629 20.8371L32.9771 19.4229C31.623 18.0688 30.0228 16.996 28.1869 16.2021L27.3931 18.0379ZM31.5629 20.8371C32.7288 22.003 33.6627 23.3895 34.3621 25.0069L36.1979 24.2131C35.404 22.3772 34.3312 20.777 32.9771 19.4229L31.5629 20.8371ZM34.3662 25.0161C35.0537 26.5631 35.4 28.2208 35.4 30H37.4C37.4 27.9526 36.9996 26.0169 36.1938 24.2039L34.3662 25.0161ZM35.4 30C35.4 31.7792 35.0537 33.4639 34.3621 35.0631L36.1979 35.8569C36.9997 34.0028 37.4 32.0475 37.4 30H35.4ZM34.3662 35.0539C33.6678 36.6253 32.7333 37.9924 31.5629 39.1629L32.9771 40.5771C34.3267 39.2276 35.3989 37.6547 36.1938 35.8661L34.3662 35.0539ZM31.5629 39.1629C30.397 40.3288 29.0105 41.2627 27.3931 41.9621L28.1869 43.7979C30.0228 43.004 31.623 41.9312 32.9771 40.5771L31.5629 39.1629ZM27.3839 41.9662C25.8369 42.6537 24.1792 43 22.4 43V45C24.4474 45 26.3831 44.5996 28.1961 43.7938L27.3839 41.9662ZM22.4 43H12.95V45H22.4V43ZM11.95 44V65H13.95V44H11.95ZM12.95 64H6.3V66H12.95V64ZM7.3 65V37.35H5.3V65H7.3ZM6.3 38.35H22.4V36.35H6.3V38.35ZM22.4 38.35C24.7474 38.35 26.7573 37.5569 28.3571 35.9571L26.9429 34.5429C25.7427 35.7431 24.2526 36.35 22.4 36.35V38.35ZM28.3571 35.9571C29.9569 34.3573 30.75 32.3474 30.75 30H28.75C28.75 31.8526 28.1431 33.3427 26.9429 34.5429L28.3571 35.9571ZM51.0699 34.2H50.0699V37.3507L51.8869 34.7767L51.0699 34.2ZM53.1699 32.1L53.7554 32.9107L53.7613 32.9064L53.1699 32.1ZM55.7599 30.7L56.1386 31.6255L56.1486 31.6214L56.1586 31.6171L55.7599 30.7ZM63.4599 30.91L63.0261 31.811L63.0398 31.8176L63.0538 31.8238L63.4599 30.91ZM66.8199 33.36L66.0814 34.0343L66.0889 34.0425L66.0966 34.0505L66.8199 33.36ZM69.1299 37.14L68.1935 37.4911L68.1974 37.501L69.1299 37.14ZM69.9699 65V66H70.9699V65H69.9699ZM63.6699 65H62.6699V66H63.6699V65ZM55.1299 36.86L54.7419 35.9384L54.7328 35.9422L54.7238 35.9462L55.1299 36.86ZM52.9599 38.05L53.5265 38.874L53.5291 38.8722L52.9599 38.05ZM51.0699 39.8L50.2836 39.1822L50.0699 39.4541V39.8H51.0699ZM51.0699 65V66H52.0699V65H51.0699ZM44.7699 65H43.7699V66H44.7699V65ZM44.7699 22.3H45.7699V21.3H44.7699V22.3ZM39.8699 22.3H38.8699V23.3H39.8699V22.3ZM39.8699 16V15H38.8699V16H39.8699ZM51.0699 16H52.0699V15H51.0699V16ZM51.8869 34.7767C52.379 34.0795 52.9989 33.457 53.7554 32.9107L52.5844 31.2893C51.6609 31.9563 50.8808 32.7339 50.253 33.6233L51.8869 34.7767ZM53.7613 32.9064C54.3803 32.4525 55.1676 32.0227 56.1386 31.6255L55.3813 29.7745C54.2989 30.2173 53.3596 30.7208 52.5786 31.2936L53.7613 32.9064ZM56.1586 31.6171C57.084 31.2147 58.1807 31 59.4699 31V29C57.9592 29 56.5825 29.2519 55.3612 29.7829L56.1586 31.6171ZM59.4699 31C60.7199 31 61.9016 31.2696 63.0261 31.811L63.8937 30.009C62.4982 29.3371 61.02 29 59.4699 29V31ZM63.0538 31.8238C64.1809 32.3247 65.1894 33.0572 66.0814 34.0343L67.5584 32.6857C66.4905 31.5161 65.259 30.6153 63.8661 29.9962L63.0538 31.8238ZM66.0966 34.0505C66.9725 34.9682 67.6751 36.1085 68.1936 37.4911L70.0663 36.7889C69.4647 35.1848 68.6273 33.8052 67.5433 32.6695L66.0966 34.0505ZM68.1974 37.501C68.708 38.8202 68.9699 40.2829 68.9699 41.9H70.9699C70.9699 40.0638 70.6718 38.3531 70.0625 36.779L68.1974 37.501ZM68.9699 41.9V65H70.9699V41.9H68.9699ZM69.9699 64H63.6699V66H69.9699V64ZM64.6699 65V41.9H62.6699V65H64.6699ZM64.6699 41.9C64.6699 40.0615 64.0372 38.473 62.767 37.2029L61.3528 38.6171C62.2294 39.4936 62.6699 40.5652 62.6699 41.9H64.6699ZM62.767 37.2029C61.4969 35.9328 59.9084 35.3 58.0699 35.3V37.3C59.4048 37.3 60.4763 37.7406 61.3528 38.6171L62.767 37.2029ZM58.0699 35.3C56.8787 35.3 55.7648 35.5076 54.7419 35.9384L55.518 37.7816C56.2683 37.4657 57.1144 37.3 58.0699 37.3V35.3ZM54.7238 35.9462C53.84 36.339 53.0595 36.7648 52.3907 37.2278L53.5291 38.8722C54.0737 38.4952 54.7399 38.1277 55.5361 37.7738L54.7238 35.9462ZM52.3934 37.226C51.571 37.7914 50.8647 38.4425 50.2836 39.1822L51.8562 40.4178C52.3018 39.8508 52.8555 39.3353 53.5265 38.874L52.3934 37.226ZM50.0699 39.8V65H52.0699V39.8H50.0699ZM51.0699 64H44.7699V66H51.0699V64ZM45.7699 65V22.3H43.7699V65H45.7699ZM44.7699 21.3H39.8699V23.3H44.7699V21.3ZM40.8699 22.3V16H38.8699V22.3H40.8699ZM39.8699 17H51.0699V15H39.8699V17ZM50.0699 16V34.2H52.0699V16H50.0699ZM79.8235 46.87L80.5306 47.5771L79.8235 46.87ZM95.8535 44V45H96.8535V44H95.8535ZM81.8535 37H80.8535V38H81.8535V37ZM81.8535 30.7V29.7H80.8535V30.7H81.8535ZM99.0735 33.78L98.3664 34.4871L99.0735 33.78ZM102.154 65V66H103.154V65H102.154ZM84.4435 51.49L85.1506 52.1971L84.4435 51.49ZM84.4435 57.51L85.1506 56.8029L84.4435 57.51ZM95.8535 58.7V59.7H96.8535V58.7H95.8535ZM95.8535 50.3H96.8535V49.3H95.8535V50.3ZM87.4535 64C84.496 64 82.2242 63.1164 80.5306 61.4229L79.1164 62.8371C81.2495 64.9702 84.0644 66 87.4535 66V64ZM80.5306 61.4229C78.8371 59.7294 77.9535 57.4575 77.9535 54.5H75.9535C75.9535 57.8892 76.9833 60.704 79.1164 62.8371L80.5306 61.4229ZM77.9535 54.5C77.9535 51.5425 78.8371 49.2706 80.5306 47.5771L79.1164 46.1629C76.9833 48.296 75.9535 51.1108 75.9535 54.5H77.9535ZM80.5306 47.5771C82.2242 45.8836 84.496 45 87.4535 45V43C84.0644 43 81.2495 44.0298 79.1164 46.1629L80.5306 47.5771ZM87.4535 45H95.8535V43H87.4535V45ZM96.8535 44V41.9H94.8535V44H96.8535ZM96.8535 41.9C96.8535 40.2526 96.2938 38.826 95.1606 37.6929L93.7464 39.1071C94.4799 39.8406 94.8535 40.7474 94.8535 41.9H96.8535ZM95.1606 37.6929C94.0275 36.5598 92.6009 36 90.9535 36V38C92.1062 38 93.0129 38.3736 93.7464 39.1071L95.1606 37.6929ZM90.9535 36H81.8535V38H90.9535V36ZM82.8535 37V30.7H80.8535V37H82.8535ZM81.8535 31.7H90.9535V29.7H81.8535V31.7ZM90.9535 31.7C94.0934 31.7 96.5303 32.651 98.3664 34.4871L99.7806 33.0729C97.5101 30.8024 94.5336 29.7 90.9535 29.7V31.7ZM98.3664 34.4871C100.203 36.3233 101.154 38.7601 101.154 41.9H103.154C103.154 38.3199 102.051 35.3434 99.7806 33.0729L98.3664 34.4871ZM101.154 41.9V65H103.154V41.9H101.154ZM102.154 64H87.4535V66H102.154V64ZM87.4535 49.3C85.9988 49.3 84.7335 49.7858 83.7364 50.7829L85.1506 52.1971C85.7402 51.6075 86.4816 51.3 87.4535 51.3V49.3ZM83.7364 50.7829C82.7393 51.78 82.2535 53.0453 82.2535 54.5H84.2535C84.2535 53.528 84.561 52.7867 85.1506 52.1971L83.7364 50.7829ZM82.2535 54.5C82.2535 55.9547 82.7393 57.22 83.7364 58.2171L85.1506 56.8029C84.561 56.2133 84.2535 55.472 84.2535 54.5H82.2535ZM83.7364 58.2171C84.7335 59.2142 85.9988 59.7 87.4535 59.7V57.7C86.4816 57.7 85.7402 57.3925 85.1506 56.8029L83.7364 58.2171ZM87.4535 59.7H95.8535V57.7H87.4535V59.7ZM96.8535 58.7V50.3H94.8535V58.7H96.8535ZM95.8535 49.3H87.4535V51.3H95.8535V49.3ZM118.951 34.2H117.951V37.3507L119.768 34.7767L118.951 34.2ZM121.051 32.1L121.636 32.9107L121.642 32.9064L121.051 32.1ZM123.641 30.7L124.019 31.6255L124.03 31.6214L124.04 31.6171L123.641 30.7ZM131.341 30.91L130.907 31.811L130.921 31.8176L130.935 31.8238L131.341 30.91ZM134.701 33.36L133.962 34.0343L133.97 34.0425L133.977 34.0505L134.701 33.36ZM137.011 37.14L136.074 37.4911L136.078 37.501L137.011 37.14ZM137.851 65V66H138.851V65H137.851ZM131.551 65H130.551V66H131.551V65ZM123.011 36.86L122.623 35.9384L122.614 35.9422L122.605 35.9462L123.011 36.86ZM120.841 38.05L121.407 38.874L121.41 38.8722L120.841 38.05ZM118.951 39.8L118.164 39.1822L117.951 39.4541V39.8H118.951ZM118.951 65V66H119.951V65H118.951ZM112.651 65H111.651V66H112.651V65ZM112.651 37H113.651V36H112.651V37ZM107.751 37H106.751V38H107.751V37ZM107.751 30.7V29.7H106.751V30.7H107.751ZM118.951 30.7H119.951V29.7H118.951V30.7ZM119.768 34.7767C120.26 34.0795 120.88 33.457 121.636 32.9107L120.465 31.2893C119.542 31.9563 118.762 32.7339 118.134 33.6233L119.768 34.7767ZM121.642 32.9064C122.261 32.4525 123.048 32.0227 124.019 31.6255L123.262 29.7745C122.18 30.2173 121.24 30.7208 120.459 31.2936L121.642 32.9064ZM124.04 31.6171C124.965 31.2147 126.062 31 127.351 31V29C125.84 29 124.463 29.2519 123.242 29.7829L124.04 31.6171ZM127.351 31C128.601 31 129.782 31.2696 130.907 31.811L131.775 30.009C130.379 29.3371 128.901 29 127.351 29V31ZM130.935 31.8238C132.062 32.3247 133.07 33.0572 133.962 34.0343L135.439 32.6857C134.371 31.5161 133.14 30.6153 131.747 29.9962L130.935 31.8238ZM133.977 34.0505C134.853 34.9682 135.556 36.1085 136.074 37.4911L137.947 36.7889C137.346 35.1848 136.508 33.8052 135.424 32.6695L133.977 34.0505ZM136.078 37.501C136.589 38.8202 136.851 40.2829 136.851 41.9H138.851C138.851 40.0638 138.553 38.3531 137.943 36.779L136.078 37.501ZM136.851 41.9V65H138.851V41.9H136.851ZM137.851 64H131.551V66H137.851V64ZM132.551 65V41.9H130.551V65H132.551ZM132.551 41.9C132.551 40.0615 131.918 38.473 130.648 37.2029L129.234 38.6171C130.11 39.4936 130.551 40.5652 130.551 41.9H132.551ZM130.648 37.2029C129.378 35.9328 127.789 35.3 125.951 35.3V37.3C127.286 37.3 128.357 37.7406 129.234 38.6171L130.648 37.2029ZM125.951 35.3C124.76 35.3 123.646 35.5076 122.623 35.9384L123.399 37.7816C124.149 37.4657 124.995 37.3 125.951 37.3V35.3ZM122.605 35.9462C121.721 36.339 120.94 36.7648 120.272 37.2278L121.41 38.8722C121.955 38.4952 122.621 38.1277 123.417 37.7738L122.605 35.9462ZM120.274 37.226C119.452 37.7914 118.746 38.4425 118.164 39.1822L119.737 40.4178C120.183 39.8508 120.736 39.3353 121.407 38.874L120.274 37.226ZM117.951 39.8V65H119.951V39.8H117.951ZM118.951 64H112.651V66H118.951V64ZM113.651 65V37H111.651V65H113.651ZM112.651 36H107.751V38H112.651V36ZM108.751 37V30.7H106.751V37H108.751ZM107.751 31.7H118.951V29.7H107.751V31.7ZM117.951 30.7V34.2H119.951V30.7H117.951ZM149.034 37H150.034V36H149.034V37ZM142.734 37H141.734V38H142.734V37ZM142.734 30.7V29.7H141.734V30.7H142.734ZM149.034 30.7V31.7H150.034V30.7H149.034ZM149.034 19.5V18.5H148.034V19.5H149.034ZM155.334 19.5H156.334V18.5H155.334V19.5ZM155.334 30.7H154.334V31.7H155.334V30.7ZM162.334 30.7H163.334V29.7H162.334V30.7ZM162.334 37V38H163.334V37H162.334ZM155.334 37V36H154.334V37H155.334ZM164.434 58.7H165.434V57.7H164.434V58.7ZM164.434 65V66H165.434V65H164.434ZM156.104 64.16L155.718 65.0822L155.73 65.0876L155.743 65.0926L156.104 64.16ZM152.324 61.71L151.602 62.4012L151.617 62.4173L151.633 62.4326L152.324 61.71ZM149.874 57.93L148.942 58.291L148.947 58.3039L148.952 58.3167L149.874 57.93ZM149.034 36H142.734V38H149.034V36ZM143.734 37V30.7H141.734V37H143.734ZM142.734 31.7H149.034V29.7H142.734V31.7ZM150.034 30.7V19.5H148.034V30.7H150.034ZM149.034 20.5H155.334V18.5H149.034V20.5ZM154.334 19.5V30.7H156.334V19.5H154.334ZM155.334 31.7H162.334V29.7H155.334V31.7ZM161.334 30.7V37H163.334V30.7H161.334ZM162.334 36H155.334V38H162.334V36ZM154.334 37V53.1H156.334V37H154.334ZM154.334 53.1C154.334 54.9385 154.967 56.527 156.237 57.7971L157.651 56.3829C156.775 55.5064 156.334 54.4348 156.334 53.1H154.334ZM156.237 57.7971C157.507 59.0672 159.096 59.7 160.934 59.7V57.7C159.6 57.7 158.528 57.2594 157.651 56.3829L156.237 57.7971ZM160.934 59.7H164.434V57.7H160.934V59.7ZM163.434 58.7V65H165.434V58.7H163.434ZM164.434 64H160.934V66H164.434V64ZM160.934 64C159.267 64 157.782 63.737 156.465 63.2274L155.743 65.0926C157.32 65.703 159.055 66 160.934 66V64ZM156.491 63.2378C155.151 62.6758 153.996 61.9248 153.016 60.9874L151.633 62.4326C152.8 63.5486 154.165 64.4309 155.718 65.0822L156.491 63.2378ZM153.047 61.0188C152.11 60.0388 151.359 58.8835 150.797 57.5433L148.952 58.3167C149.603 59.8698 150.486 61.2346 151.602 62.4012L153.047 61.0188ZM150.807 57.569C150.297 56.2527 150.034 54.7674 150.034 53.1H148.034C148.034 54.9793 148.331 56.7139 148.942 58.291L150.807 57.569ZM150.034 53.1V37H148.034V53.1H150.034ZM193.576 58L192.652 57.6193L192.647 57.631L192.642 57.6429L193.576 58ZM190.916 62.13L191.623 62.8371V62.8371L190.916 62.13ZM186.856 64.79L187.213 65.7241L187.225 65.7195L187.237 65.7147L186.856 64.79ZM176.356 64.79L175.975 65.7147L175.987 65.7195L175.999 65.7241L176.356 64.79ZM172.226 62.13L171.505 62.8225L171.519 62.8373L171.534 62.8514L172.226 62.13ZM169.566 58L168.632 58.3571L168.637 58.369L168.642 58.3807L169.566 58ZM169.566 37.7L168.642 37.3192L168.637 37.331L168.632 37.3429L169.566 37.7ZM172.226 33.64L172.933 34.3471L172.226 33.64ZM176.356 30.98L176.713 31.914L176.725 31.9095L176.737 31.9047L176.356 30.98ZM186.856 30.98L186.475 31.9047L186.487 31.9095L186.499 31.914L186.856 30.98ZM190.916 33.64L190.195 34.3325L190.209 34.3473L190.224 34.3614L190.916 33.64ZM193.576 37.7L192.642 38.0571L192.647 38.069L192.652 38.0807L193.576 37.7ZM176.776 57.58L176.056 58.2736L176.069 58.2872L176.083 58.3003L176.776 57.58ZM186.366 57.58L185.659 56.8729L186.366 57.58ZM186.366 38.19L185.646 38.8836L185.659 38.8972L185.673 38.9103L186.366 38.19ZM176.776 38.19L177.483 38.8971L176.776 38.19ZM193.556 52.75C193.556 54.5477 193.25 56.1665 192.652 57.6193L194.501 58.3807C195.209 56.6601 195.556 54.7789 195.556 52.75H193.556ZM192.642 57.6429C192.084 59.1022 191.273 60.3586 190.209 61.4229L191.623 62.8371C192.892 61.5681 193.855 60.0711 194.51 58.3571L192.642 57.6429ZM190.209 61.4229C189.19 62.442 187.95 63.258 186.475 63.8653L187.237 65.7147C188.935 65.0153 190.402 64.058 191.623 62.8371L190.209 61.4229ZM186.499 63.8559C185.04 64.4139 183.413 64.7 181.606 64.7V66.7C183.626 66.7 185.499 66.3795 187.213 65.7241L186.499 63.8559ZM181.606 64.7C179.8 64.7 178.173 64.4139 176.713 63.8559L175.999 65.7241C177.713 66.3795 179.586 66.7 181.606 66.7V64.7ZM176.737 63.8653C175.259 63.2567 173.99 62.4367 172.919 61.4086L171.534 62.8514C172.796 64.0633 174.28 65.0166 175.975 65.7147L176.737 63.8653ZM172.948 61.4375C171.92 60.3665 171.1 59.0973 170.491 57.6193L168.642 58.3807C169.34 60.076 170.293 61.5602 171.505 62.8225L172.948 61.4375ZM170.5 57.6429C169.942 56.1837 169.656 54.5566 169.656 52.75H167.656C167.656 54.7701 167.977 56.643 168.632 58.3571L170.5 57.6429ZM169.656 52.75V42.95H167.656V52.75H169.656ZM169.656 42.95C169.656 41.1434 169.942 39.5163 170.5 38.0571L168.632 37.3429C167.977 39.057 167.656 40.9299 167.656 42.95H169.656ZM170.491 38.0807C171.098 36.6059 171.914 35.3662 172.933 34.3471L171.519 32.9329C170.298 34.1538 169.341 35.6208 168.642 37.3192L170.491 38.0807ZM172.933 34.3471C173.998 33.2828 175.254 32.472 176.713 31.914L175.999 30.0459C174.285 30.7013 172.788 31.6638 171.519 32.9329L172.933 34.3471ZM176.737 31.9047C178.19 31.3065 179.809 31 181.606 31V29C179.577 29 177.696 29.3468 175.975 30.0553L176.737 31.9047ZM181.606 31C183.404 31 185.023 31.3065 186.475 31.9047L187.237 30.0553C185.516 29.3468 183.635 29 181.606 29V31ZM186.499 31.914C187.955 32.4708 189.182 33.2776 190.195 34.3325L191.638 32.9475C190.41 31.6691 188.931 30.7026 187.213 30.0459L186.499 31.914ZM190.224 34.3614C191.279 35.3741 192.085 36.6011 192.642 38.0571L194.51 37.3429C193.854 35.6256 192.887 34.1459 191.609 32.9186L190.224 34.3614ZM192.652 38.0807C193.25 39.5335 193.556 41.1523 193.556 42.95H195.556C195.556 40.9211 195.209 39.0399 194.501 37.3192L192.652 38.0807ZM193.556 42.95V52.75H195.556V42.95H193.556ZM173.956 52.75C173.956 54.9348 174.641 56.8043 176.056 58.2736L177.497 56.8864C176.485 55.8357 175.956 54.4852 175.956 52.75H173.956ZM176.083 58.3003C177.552 59.7153 179.421 60.4 181.606 60.4V58.4C179.871 58.4 178.521 57.8714 177.47 56.8597L176.083 58.3003ZM181.606 60.4C183.79 60.4 185.645 59.7151 187.073 58.2871L185.659 56.8729C184.66 57.8716 183.342 58.4 181.606 58.4V60.4ZM187.073 58.2871C188.541 56.8199 189.256 54.9461 189.256 52.75H187.256C187.256 54.4739 186.712 55.8201 185.659 56.8729L187.073 58.2871ZM189.256 52.75V42.95H187.256V52.75H189.256ZM189.256 42.95C189.256 40.7542 188.54 38.8951 187.06 37.4697L185.673 38.9103C186.712 39.9116 187.256 41.2258 187.256 42.95H189.256ZM187.087 37.4964C185.661 36.0161 183.802 35.3 181.606 35.3V37.3C183.33 37.3 184.645 37.8439 185.646 38.8836L187.087 37.4964ZM181.606 35.3C179.41 35.3 177.536 36.0157 176.069 37.4829L177.483 38.8971C178.536 37.8443 179.882 37.3 181.606 37.3V35.3ZM176.069 37.4829C174.641 38.9109 173.956 40.7658 173.956 42.95H175.956C175.956 41.2142 176.485 39.8958 177.483 38.8971L176.069 37.4829ZM173.956 42.95V52.75H175.956V42.95H173.956ZM210.427 33.5L209.646 32.8752L209.638 32.8861L210.427 33.5ZM211.967 32.03L211.376 31.2236L211.362 31.2334L211.349 31.2437L211.967 32.03ZM214.487 30.63L214.108 29.7045L214.101 29.7076L214.093 29.7109L214.487 30.63ZM221.837 30.91L221.345 31.7806L221.36 31.7888L221.375 31.7966L221.837 30.91ZM224.567 32.8L225.274 32.0929L225.263 32.0815L225.251 32.0705L224.567 32.8ZM226.737 35.6L225.876 36.1087L226.651 37.4192L227.546 36.1882L226.737 35.6ZM229.257 32.8L228.595 32.0501L228.588 32.0567L229.257 32.8ZM232.197 30.91L232.63 31.8115L232.644 31.8046L232.658 31.7972L232.197 30.91ZM239.967 30.91L239.52 31.8044L239.534 31.8114L239.548 31.818L239.967 30.91ZM243.187 33.36L242.433 34.0162L242.448 34.0337L242.464 34.0505L243.187 33.36ZM245.497 37.14L244.561 37.4911L244.565 37.501L245.497 37.14ZM246.337 65V66H247.337V65H246.337ZM240.037 65H239.037V66H240.037V65ZM238.427 37.91L237.704 38.6012L237.712 38.6092L237.72 38.6171L238.427 37.91ZM232.127 36.86L232.553 37.7648L232.127 36.86ZM230.027 38.05L229.458 37.2278L229.447 37.2355L229.436 37.2436L230.027 38.05ZM228.137 39.8L227.378 39.1492L227.137 39.4301V39.8H228.137ZM228.137 65V66H229.137V65H228.137ZM221.837 65H220.837V66H221.837V65ZM220.227 37.91L219.504 38.6012L219.512 38.6092L219.52 38.6171L220.227 37.91ZM213.927 36.86L214.353 37.7648V37.7648L213.927 36.86ZM211.827 38.05L211.258 37.2278L211.247 37.2355L211.236 37.2436L211.827 38.05ZM209.937 39.8L209.178 39.1492L208.937 39.4301V39.8H209.937ZM209.937 65V66H210.937V65H209.937ZM203.637 65H202.637V66H203.637V65ZM203.637 37H204.637V36H203.637V37ZM198.737 37H197.737V38H198.737V37ZM198.737 30.7V29.7H197.737V30.7H198.737ZM209.937 30.7H210.937V29.7H209.937V30.7ZM210.937 34.2C210.937 34.2693 210.93 34.3267 210.923 34.3675C210.915 34.4091 210.906 34.4436 210.899 34.4691C210.885 34.5184 210.869 34.5553 210.861 34.5746C210.852 34.5956 210.844 34.6109 210.84 34.6189C210.835 34.6274 210.832 34.6326 210.832 34.6339C210.831 34.634 210.844 34.6133 210.879 34.5635C210.946 34.4676 211.056 34.3199 211.216 34.1139L209.638 32.8861C209.471 33.1001 209.337 33.2791 209.24 33.4165C209.194 33.4833 209.145 33.556 209.104 33.6261C209.084 33.66 209.055 33.7116 209.029 33.7729C209.018 33.7963 208.937 33.9702 208.937 34.2H210.937ZM211.208 34.1247C211.519 33.7361 211.97 33.2991 212.585 32.8163L211.349 31.2437C210.657 31.7875 210.082 32.3305 209.646 32.8753L211.208 34.1247ZM212.558 32.8364C213.185 32.3769 213.956 31.9457 214.881 31.5491L214.093 29.7109C213.059 30.1543 212.149 30.6565 211.376 31.2236L212.558 32.8364ZM214.866 31.5555C215.753 31.1926 216.788 31 217.987 31V29C216.573 29 215.275 29.2274 214.108 29.7045L214.866 31.5555ZM217.987 31C219.344 31 220.451 31.275 221.345 31.7806L222.329 30.0394C221.077 29.3317 219.617 29 217.987 29V31ZM221.375 31.7966C222.382 32.322 223.214 32.9018 223.883 33.5295L225.251 32.0705C224.427 31.2982 223.439 30.618 222.3 30.0234L221.375 31.7966ZM223.86 33.5071C224.64 34.2875 225.312 35.1541 225.876 36.1087L227.598 35.0913C226.949 33.9926 226.174 32.9925 225.274 32.0929L223.86 33.5071ZM227.546 36.1882C228.252 35.2173 229.045 34.3361 229.926 33.5433L228.588 32.0567C227.602 32.9439 226.716 33.9293 225.928 35.0118L227.546 36.1882ZM229.919 33.5498C230.63 32.9225 231.528 32.3402 232.63 31.8115L231.764 30.0085C230.533 30.5998 229.471 31.2775 228.595 32.0502L229.919 33.5498ZM232.658 31.7972C233.664 31.2742 234.832 31 236.187 31V29C234.555 29 233.063 29.3325 231.736 30.0228L232.658 31.7972ZM236.187 31C237.333 31 238.44 31.2645 239.52 31.8044L240.414 30.0156C239.068 29.3422 237.655 29 236.187 29V31ZM239.548 31.818C240.625 32.3149 241.586 33.0426 242.433 34.0162L243.942 32.7038C242.922 31.5308 241.736 30.6251 240.386 30.002L239.548 31.818ZM242.464 34.0505C243.34 34.9682 244.042 36.1085 244.561 37.4911L246.433 36.7889C245.832 35.1848 244.994 33.8052 243.91 32.6695L242.464 34.0505ZM244.565 37.501C245.075 38.8202 245.337 40.2829 245.337 41.9H247.337C247.337 40.0638 247.039 38.3531 246.43 36.779L244.565 37.501ZM245.337 41.9V65H247.337V41.9H245.337ZM246.337 64H240.037V66H246.337V64ZM241.037 65V41.9H239.037V65H241.037ZM241.037 41.9C241.037 40.0615 240.404 38.473 239.134 37.2029L237.72 38.6171C238.597 39.4936 239.037 40.5652 239.037 41.9H241.037ZM239.15 37.2188C237.947 35.9616 236.478 35.3 234.787 35.3V37.3C235.896 37.3 236.854 37.7117 237.704 38.6012L239.15 37.2188ZM234.787 35.3C233.677 35.3 232.643 35.5121 231.701 35.9552L232.553 37.7648C233.198 37.4612 233.937 37.3 234.787 37.3V35.3ZM231.701 35.9552C230.867 36.3478 230.118 36.7711 229.458 37.2278L230.596 38.8722C231.15 38.4889 231.801 38.1189 232.553 37.7648L231.701 35.9552ZM229.436 37.2436C228.675 37.8018 227.988 38.4372 227.378 39.1492L228.896 40.4508C229.406 39.8561 229.98 39.3249 230.618 38.8564L229.436 37.2436ZM227.137 39.8V65H229.137V39.8H227.137ZM228.137 64H221.837V66H228.137V64ZM222.837 65V41.9H220.837V65H222.837ZM222.837 41.9C222.837 40.0615 222.204 38.473 220.934 37.2029L219.52 38.6171C220.397 39.4936 220.837 40.5652 220.837 41.9H222.837ZM220.95 37.2188C219.747 35.9616 218.278 35.3 216.587 35.3V37.3C217.696 37.3 218.654 37.7117 219.504 38.6012L220.95 37.2188ZM216.587 35.3C215.477 35.3 214.443 35.5121 213.501 35.9552L214.353 37.7648C214.998 37.4612 215.737 37.3 216.587 37.3V35.3ZM213.501 35.9552C212.667 36.3478 211.918 36.7711 211.258 37.2278L212.396 38.8722C212.95 38.4889 213.601 38.1189 214.353 37.7648L213.501 35.9552ZM211.236 37.2436C210.475 37.8018 209.788 38.4372 209.178 39.1492L210.696 40.4508C211.206 39.8561 211.78 39.3249 212.418 38.8564L211.236 37.2436ZM208.937 39.8V65H210.937V39.8H208.937ZM209.937 64H203.637V66H209.937V64ZM204.637 65V37H202.637V65H204.637ZM203.637 36H198.737V38H203.637V36ZM199.737 37V30.7H197.737V37H199.737ZM198.737 31.7H209.937V29.7H198.737V31.7ZM208.937 30.7V34.2H210.937V30.7H208.937Z" fill="#1D1D1F"/>
</svg>
