<svg width="272" height="270" viewBox="0 0 272 270" fill="none" xmlns="http://www.w3.org/2000/svg">
<path d="M41.75 125C41.75 122.9 41.05 121.15 39.65 119.75C38.25 118.35 36.5 117.65 34.4 117.65H12.7V111H34.4C36.3133 111 38.11 111.373 39.79 112.12C41.5167 112.867 43.01 113.87 44.27 115.13C45.53 116.39 46.5333 117.883 47.28 119.61C48.0267 121.29 48.4 123.087 48.4 125C48.4 126.913 48.0267 128.733 47.28 130.46C46.5333 132.14 45.53 133.61 44.27 134.87C43.01 136.13 41.5167 137.133 39.79 137.88C38.11 138.627 36.3133 139 34.4 139H24.95V160H18.3V132.35H34.4C36.5 132.35 38.25 131.65 39.65 130.25C41.05 128.85 41.75 127.1 41.75 125ZM63.0699 129.2C63.6299 128.407 64.3299 127.707 65.1699 127.1C65.8699 126.587 66.7333 126.12 67.7599 125.7C68.8333 125.233 70.0699 125 71.4699 125C72.8699 125 74.1999 125.303 75.4599 125.91C76.7199 126.47 77.8399 127.287 78.8199 128.36C79.7999 129.387 80.5699 130.647 81.1299 132.14C81.6899 133.587 81.9699 135.173 81.9699 136.9V160H75.6699V136.9C75.6699 135.313 75.1333 133.983 74.0599 132.91C72.9866 131.837 71.6566 131.3 70.0699 131.3C68.9966 131.3 68.0166 131.487 67.1299 131.86C66.2899 132.233 65.5666 132.63 64.9599 133.05C64.2133 133.563 63.5833 134.147 63.0699 134.8V160H56.7699V117.3H51.8699V111H63.0699V129.2ZM99.4535 160C96.2802 160 93.7368 159.043 91.8235 157.13C89.9102 155.217 88.9535 152.673 88.9535 149.5C88.9535 146.327 89.9102 143.783 91.8235 141.87C93.7368 139.957 96.2802 139 99.4535 139H107.854V136.9C107.854 135.5 107.387 134.333 106.454 133.4C105.52 132.467 104.354 132 102.954 132H93.8535V125.7H102.954C106.314 125.7 109.02 126.727 111.074 128.78C113.127 130.833 114.154 133.54 114.154 136.9V160H99.4535ZM99.4535 145.3C98.2402 145.3 97.2368 145.697 96.4435 146.49C95.6502 147.283 95.2535 148.287 95.2535 149.5C95.2535 150.713 95.6502 151.717 96.4435 152.51C97.2368 153.303 98.2402 153.7 99.4535 153.7H107.854V145.3H99.4535ZM130.951 129.2C131.511 128.407 132.211 127.707 133.051 127.1C133.751 126.587 134.614 126.12 135.641 125.7C136.714 125.233 137.951 125 139.351 125C140.751 125 142.081 125.303 143.341 125.91C144.601 126.47 145.721 127.287 146.701 128.36C147.681 129.387 148.451 130.647 149.011 132.14C149.571 133.587 149.851 135.173 149.851 136.9V160H143.551V136.9C143.551 135.313 143.014 133.983 141.941 132.91C140.867 131.837 139.537 131.3 137.951 131.3C136.877 131.3 135.897 131.487 135.011 131.86C134.171 132.233 133.447 132.63 132.841 133.05C132.094 133.563 131.464 134.147 130.951 134.8V160H124.651V132H119.751V125.7H130.951V129.2ZM161.034 132H154.734V125.7H161.034V114.5H167.334V125.7H174.334V132H167.334V148.1C167.334 149.687 167.871 151.017 168.944 152.09C170.018 153.163 171.348 153.7 172.934 153.7H176.434V160H172.934C171.161 160 169.551 159.72 168.104 159.16C166.658 158.553 165.398 157.737 164.324 156.71C163.298 155.637 162.481 154.377 161.874 152.93C161.314 151.483 161.034 149.873 161.034 148.1V132ZM206.556 147.75C206.556 149.663 206.23 151.413 205.576 153C204.97 154.587 204.083 155.963 202.916 157.13C201.796 158.25 200.443 159.137 198.856 159.79C197.27 160.397 195.52 160.7 193.606 160.7C191.693 160.7 189.943 160.397 188.356 159.79C186.77 159.137 185.393 158.25 184.226 157.13C183.106 155.963 182.22 154.587 181.566 153C180.96 151.413 180.656 149.663 180.656 147.75V137.95C180.656 136.037 180.96 134.287 181.566 132.7C182.22 131.113 183.106 129.76 184.226 128.64C185.393 127.473 186.77 126.587 188.356 125.98C189.943 125.327 191.693 125 193.606 125C195.52 125 197.27 125.327 198.856 125.98C200.443 126.587 201.796 127.473 202.916 128.64C204.083 129.76 204.97 131.113 205.576 132.7C206.23 134.287 206.556 136.037 206.556 137.95V147.75ZM186.956 147.75C186.956 149.71 187.563 151.32 188.776 152.58C190.036 153.793 191.646 154.4 193.606 154.4C195.566 154.4 197.153 153.793 198.366 152.58C199.626 151.32 200.256 149.71 200.256 147.75V137.95C200.256 135.99 199.626 134.403 198.366 133.19C197.153 131.93 195.566 131.3 193.606 131.3C191.646 131.3 190.036 131.93 188.776 133.19C187.563 134.403 186.956 135.99 186.956 137.95V147.75ZM221.937 129.2C221.937 129.153 222.1 128.92 222.427 128.5C222.8 128.033 223.314 127.543 223.967 127.03C224.667 126.517 225.507 126.05 226.487 125.63C227.514 125.21 228.68 125 229.987 125C231.48 125 232.764 125.303 233.837 125.91C234.91 126.47 235.82 127.1 236.567 127.8C237.407 128.64 238.13 129.573 238.737 130.6C239.484 129.573 240.324 128.64 241.257 127.8C242.05 127.1 243.03 126.47 244.197 125.91C245.364 125.303 246.694 125 248.187 125C249.494 125 250.754 125.303 251.967 125.91C253.18 126.47 254.254 127.287 255.187 128.36C256.167 129.387 256.937 130.647 257.497 132.14C258.057 133.587 258.337 135.173 258.337 136.9V160H252.037V136.9C252.037 135.313 251.5 133.983 250.427 132.91C249.4 131.837 248.187 131.3 246.787 131.3C245.807 131.3 244.92 131.487 244.127 131.86C243.334 132.233 242.634 132.63 242.027 133.05C241.327 133.563 240.697 134.147 240.137 134.8V160H233.837V136.9C233.837 135.313 233.3 133.983 232.227 132.91C231.2 131.837 229.987 131.3 228.587 131.3C227.607 131.3 226.72 131.487 225.927 131.86C225.134 132.233 224.434 132.63 223.827 133.05C223.127 133.563 222.497 134.147 221.937 134.8V160H215.637V132H210.737V125.7H221.937V129.2Z" fill="#1D1D1F"/>
<path d="M39.65 119.75L40.3571 119.043L40.3571 119.043L39.65 119.75ZM12.7 117.65H11.7V118.65H12.7V117.65ZM12.7 111V110H11.7V111H12.7ZM39.79 112.12L39.3838 113.034L39.3931 113.038L39.79 112.12ZM47.28 119.61L46.3621 120.007L46.3662 120.016L47.28 119.61ZM47.28 130.46L48.1939 130.866L48.1979 130.857L47.28 130.46ZM44.27 134.87L43.5629 134.163L43.5629 134.163L44.27 134.87ZM39.79 137.88L39.3931 136.962L39.3839 136.966L39.79 137.88ZM24.95 139V138H23.95V139H24.95ZM24.95 160V161H25.95V160H24.95ZM18.3 160H17.3V161H18.3V160ZM18.3 132.35V131.35H17.3V132.35H18.3ZM42.75 125C42.75 122.653 41.9569 120.643 40.3571 119.043L38.9429 120.457C40.1431 121.657 40.75 123.147 40.75 125H42.75ZM40.3571 119.043C38.7573 117.443 36.7474 116.65 34.4 116.65V118.65C36.2526 118.65 37.7427 119.257 38.9429 120.457L40.3571 119.043ZM34.4 116.65H12.7V118.65H34.4V116.65ZM13.7 117.65V111H11.7V117.65H13.7ZM12.7 112H34.4V110H12.7V112ZM34.4 112C36.1792 112 37.8369 112.346 39.3839 113.034L40.1961 111.206C38.3831 110.4 36.4474 110 34.4 110V112ZM39.3931 113.038C41.0105 113.737 42.397 114.671 43.5629 115.837L44.9771 114.423C43.623 113.069 42.0228 111.996 40.1869 111.202L39.3931 113.038ZM43.5629 115.837C44.7288 117.003 45.6627 118.389 46.3621 120.007L48.1979 119.213C47.404 117.377 46.3312 115.777 44.9771 114.423L43.5629 115.837ZM46.3662 120.016C47.0537 121.563 47.4 123.221 47.4 125H49.4C49.4 122.953 48.9996 121.017 48.1938 119.204L46.3662 120.016ZM47.4 125C47.4 126.779 47.0537 128.464 46.3621 130.063L48.1979 130.857C48.9997 129.003 49.4 127.047 49.4 125H47.4ZM46.3662 130.054C45.6678 131.625 44.7333 132.992 43.5629 134.163L44.9771 135.577C46.3267 134.228 47.3989 132.655 48.1938 130.866L46.3662 130.054ZM43.5629 134.163C42.397 135.329 41.0105 136.263 39.3931 136.962L40.1869 138.798C42.0228 138.004 43.623 136.931 44.9771 135.577L43.5629 134.163ZM39.3839 136.966C37.8369 137.654 36.1792 138 34.4 138V140C36.4474 140 38.3831 139.6 40.1961 138.794L39.3839 136.966ZM34.4 138H24.95V140H34.4V138ZM23.95 139V160H25.95V139H23.95ZM24.95 159H18.3V161H24.95V159ZM19.3 160V132.35H17.3V160H19.3ZM18.3 133.35H34.4V131.35H18.3V133.35ZM34.4 133.35C36.7474 133.35 38.7573 132.557 40.3571 130.957L38.9429 129.543C37.7427 130.743 36.2526 131.35 34.4 131.35V133.35ZM40.3571 130.957C41.9569 129.357 42.75 127.347 42.75 125H40.75C40.75 126.853 40.1431 128.343 38.9429 129.543L40.3571 130.957ZM63.0699 129.2H62.0699V132.351L63.8869 129.777L63.0699 129.2ZM65.1699 127.1L65.7554 127.911L65.7613 127.906L65.1699 127.1ZM67.7599 125.7L68.1386 126.626L68.1486 126.621L68.1586 126.617L67.7599 125.7ZM75.4599 125.91L75.0261 126.811L75.0398 126.818L75.0538 126.824L75.4599 125.91ZM78.8199 128.36L78.0814 129.034L78.0889 129.042L78.0966 129.05L78.8199 128.36ZM81.1299 132.14L80.1935 132.491L80.1974 132.501L81.1299 132.14ZM81.9699 160V161H82.9699V160H81.9699ZM75.6699 160H74.6699V161H75.6699V160ZM67.1299 131.86L66.7419 130.938L66.7328 130.942L66.7238 130.946L67.1299 131.86ZM64.9599 133.05L65.5265 133.874L65.5291 133.872L64.9599 133.05ZM63.0699 134.8L62.2836 134.182L62.0699 134.454V134.8H63.0699ZM63.0699 160V161H64.0699V160H63.0699ZM56.7699 160H55.7699V161H56.7699V160ZM56.7699 117.3H57.7699V116.3H56.7699V117.3ZM51.8699 117.3H50.8699V118.3H51.8699V117.3ZM51.8699 111V110H50.8699V111H51.8699ZM63.0699 111H64.0699V110H63.0699V111ZM63.8869 129.777C64.379 129.079 64.9989 128.457 65.7554 127.911L64.5844 126.289C63.6609 126.956 62.8808 127.734 62.253 128.623L63.8869 129.777ZM65.7613 127.906C66.3803 127.452 67.1676 127.023 68.1386 126.626L67.3813 124.774C66.2989 125.217 65.3596 125.721 64.5786 126.294L65.7613 127.906ZM68.1586 126.617C69.084 126.215 70.1807 126 71.4699 126V124C69.9592 124 68.5825 124.252 67.3612 124.783L68.1586 126.617ZM71.4699 126C72.7199 126 73.9016 126.27 75.0261 126.811L75.8937 125.009C74.4982 124.337 73.02 124 71.4699 124V126ZM75.0538 126.824C76.1809 127.325 77.1894 128.057 78.0814 129.034L79.5584 127.686C78.4905 126.516 77.259 125.615 75.8661 124.996L75.0538 126.824ZM78.0966 129.05C78.9725 129.968 79.6751 131.108 80.1936 132.491L82.0663 131.789C81.4647 130.185 80.6273 128.805 79.5433 127.67L78.0966 129.05ZM80.1974 132.501C80.708 133.82 80.9699 135.283 80.9699 136.9H82.9699C82.9699 135.064 82.6718 133.353 82.0625 131.779L80.1974 132.501ZM80.9699 136.9V160H82.9699V136.9H80.9699ZM81.9699 159H75.6699V161H81.9699V159ZM76.6699 160V136.9H74.6699V160H76.6699ZM76.6699 136.9C76.6699 135.061 76.0372 133.473 74.767 132.203L73.3528 133.617C74.2294 134.494 74.6699 135.565 74.6699 136.9H76.6699ZM74.767 132.203C73.4969 130.933 71.9084 130.3 70.0699 130.3V132.3C71.4048 132.3 72.4763 132.741 73.3528 133.617L74.767 132.203ZM70.0699 130.3C68.8787 130.3 67.7648 130.508 66.7419 130.938L67.518 132.782C68.2683 132.466 69.1144 132.3 70.0699 132.3V130.3ZM66.7238 130.946C65.84 131.339 65.0595 131.765 64.3907 132.228L65.5291 133.872C66.0737 133.495 66.7399 133.128 67.5361 132.774L66.7238 130.946ZM64.3934 132.226C63.571 132.791 62.8647 133.443 62.2836 134.182L63.8562 135.418C64.3018 134.851 64.8555 134.335 65.5265 133.874L64.3934 132.226ZM62.0699 134.8V160H64.0699V134.8H62.0699ZM63.0699 159H56.7699V161H63.0699V159ZM57.7699 160V117.3H55.7699V160H57.7699ZM56.7699 116.3H51.8699V118.3H56.7699V116.3ZM52.8699 117.3V111H50.8699V117.3H52.8699ZM51.8699 112H63.0699V110H51.8699V112ZM62.0699 111V129.2H64.0699V111H62.0699ZM91.8235 141.87L92.5306 142.577L92.5306 142.577L91.8235 141.87ZM107.854 139V140H108.854V139H107.854ZM93.8535 132H92.8535V133H93.8535V132ZM93.8535 125.7V124.7H92.8535V125.7H93.8535ZM111.074 128.78L110.366 129.487L111.074 128.78ZM114.154 160V161H115.154V160H114.154ZM96.4435 146.49L97.1506 147.197L97.1506 147.197L96.4435 146.49ZM96.4435 152.51L97.1506 151.803L97.1506 151.803L96.4435 152.51ZM107.854 153.7V154.7H108.854V153.7H107.854ZM107.854 145.3H108.854V144.3H107.854V145.3ZM99.4535 159C96.496 159 94.2242 158.116 92.5306 156.423L91.1164 157.837C93.2495 159.97 96.0644 161 99.4535 161V159ZM92.5306 156.423C90.8371 154.729 89.9535 152.458 89.9535 149.5H87.9535C87.9535 152.889 88.9833 155.704 91.1164 157.837L92.5306 156.423ZM89.9535 149.5C89.9535 146.542 90.8371 144.271 92.5306 142.577L91.1164 141.163C88.9833 143.296 87.9535 146.111 87.9535 149.5H89.9535ZM92.5306 142.577C94.2242 140.884 96.496 140 99.4535 140V138C96.0644 138 93.2495 139.03 91.1164 141.163L92.5306 142.577ZM99.4535 140H107.854V138H99.4535V140ZM108.854 139V136.9H106.854V139H108.854ZM108.854 136.9C108.854 135.253 108.294 133.826 107.161 132.693L105.746 134.107C106.48 134.841 106.854 135.747 106.854 136.9H108.854ZM107.161 132.693C106.027 131.56 104.601 131 102.954 131V133C104.106 133 105.013 133.374 105.746 134.107L107.161 132.693ZM102.954 131H93.8535V133H102.954V131ZM94.8535 132V125.7H92.8535V132H94.8535ZM93.8535 126.7H102.954V124.7H93.8535V126.7ZM102.954 126.7C106.093 126.7 108.53 127.651 110.366 129.487L111.781 128.073C109.51 125.802 106.534 124.7 102.954 124.7V126.7ZM110.366 129.487C112.203 131.323 113.154 133.76 113.154 136.9H115.154C115.154 133.32 114.051 130.343 111.781 128.073L110.366 129.487ZM113.154 136.9V160H115.154V136.9H113.154ZM114.154 159H99.4535V161H114.154V159ZM99.4535 144.3C97.9988 144.3 96.7335 144.786 95.7364 145.783L97.1506 147.197C97.7402 146.608 98.4816 146.3 99.4535 146.3V144.3ZM95.7364 145.783C94.7393 146.78 94.2535 148.045 94.2535 149.5H96.2535C96.2535 148.528 96.561 147.787 97.1506 147.197L95.7364 145.783ZM94.2535 149.5C94.2535 150.955 94.7393 152.22 95.7364 153.217L97.1506 151.803C96.561 151.213 96.2535 150.472 96.2535 149.5H94.2535ZM95.7364 153.217C96.7335 154.214 97.9988 154.7 99.4535 154.7V152.7C98.4816 152.7 97.7402 152.392 97.1506 151.803L95.7364 153.217ZM99.4535 154.7H107.854V152.7H99.4535V154.7ZM108.854 153.7V145.3H106.854V153.7H108.854ZM107.854 144.3H99.4535V146.3H107.854V144.3ZM130.951 129.2H129.951V132.351L131.768 129.777L130.951 129.2ZM133.051 127.1L133.636 127.911L133.642 127.906L133.051 127.1ZM135.641 125.7L136.019 126.626L136.03 126.621L136.04 126.617L135.641 125.7ZM143.341 125.91L142.907 126.811L142.921 126.818L142.935 126.824L143.341 125.91ZM146.701 128.36L145.962 129.034L145.97 129.042L145.977 129.05L146.701 128.36ZM149.011 132.14L148.074 132.491L148.078 132.501L149.011 132.14ZM149.851 160V161H150.851V160H149.851ZM143.551 160H142.551V161H143.551V160ZM135.011 131.86L134.623 130.938L134.614 130.942L134.605 130.946L135.011 131.86ZM132.841 133.05L133.407 133.874L133.41 133.872L132.841 133.05ZM130.951 134.8L130.164 134.182L129.951 134.454V134.8H130.951ZM130.951 160V161H131.951V160H130.951ZM124.651 160H123.651V161H124.651V160ZM124.651 132H125.651V131H124.651V132ZM119.751 132H118.751V133H119.751V132ZM119.751 125.7V124.7H118.751V125.7H119.751ZM130.951 125.7H131.951V124.7H130.951V125.7ZM131.768 129.777C132.26 129.079 132.88 128.457 133.636 127.911L132.465 126.289C131.542 126.956 130.762 127.734 130.134 128.623L131.768 129.777ZM133.642 127.906C134.261 127.452 135.048 127.023 136.019 126.626L135.262 124.774C134.18 125.217 133.24 125.721 132.459 126.294L133.642 127.906ZM136.04 126.617C136.965 126.215 138.062 126 139.351 126V124C137.84 124 136.463 124.252 135.242 124.783L136.04 126.617ZM139.351 126C140.601 126 141.782 126.27 142.907 126.811L143.775 125.009C142.379 124.337 140.901 124 139.351 124V126ZM142.935 126.824C144.062 127.325 145.07 128.057 145.962 129.034L147.439 127.686C146.371 126.516 145.14 125.615 143.747 124.996L142.935 126.824ZM145.977 129.05C146.853 129.968 147.556 131.108 148.074 132.491L149.947 131.789C149.346 130.185 148.508 128.805 147.424 127.67L145.977 129.05ZM148.078 132.501C148.589 133.82 148.851 135.283 148.851 136.9H150.851C150.851 135.064 150.553 133.353 149.943 131.779L148.078 132.501ZM148.851 136.9V160H150.851V136.9H148.851ZM149.851 159H143.551V161H149.851V159ZM144.551 160V136.9H142.551V160H144.551ZM144.551 136.9C144.551 135.061 143.918 133.473 142.648 132.203L141.234 133.617C142.11 134.494 142.551 135.565 142.551 136.9H144.551ZM142.648 132.203C141.378 130.933 139.789 130.3 137.951 130.3V132.3C139.286 132.3 140.357 132.741 141.234 133.617L142.648 132.203ZM137.951 130.3C136.76 130.3 135.646 130.508 134.623 130.938L135.399 132.782C136.149 132.466 136.995 132.3 137.951 132.3V130.3ZM134.605 130.946C133.721 131.339 132.94 131.765 132.272 132.228L133.41 133.872C133.955 133.495 134.621 133.128 135.417 132.774L134.605 130.946ZM132.274 132.226C131.452 132.791 130.746 133.443 130.164 134.182L131.737 135.418C132.183 134.851 132.736 134.335 133.407 133.874L132.274 132.226ZM129.951 134.8V160H131.951V134.8H129.951ZM130.951 159H124.651V161H130.951V159ZM125.651 160V132H123.651V160H125.651ZM124.651 131H119.751V133H124.651V131ZM120.751 132V125.7H118.751V132H120.751ZM119.751 126.7H130.951V124.7H119.751V126.7ZM129.951 125.7V129.2H131.951V125.7H129.951ZM161.034 132H162.034V131H161.034V132ZM154.734 132H153.734V133H154.734V132ZM154.734 125.7V124.7H153.734V125.7H154.734ZM161.034 125.7V126.7H162.034V125.7H161.034ZM161.034 114.5V113.5H160.034V114.5H161.034ZM167.334 114.5H168.334V113.5H167.334V114.5ZM167.334 125.7H166.334V126.7H167.334V125.7ZM174.334 125.7H175.334V124.7H174.334V125.7ZM174.334 132V133H175.334V132H174.334ZM167.334 132V131H166.334V132H167.334ZM176.434 153.7H177.434V152.7H176.434V153.7ZM176.434 160V161H177.434V160H176.434ZM168.104 159.16L167.718 160.082L167.73 160.088L167.743 160.093L168.104 159.16ZM164.324 156.71L163.602 157.401L163.617 157.417L163.633 157.433L164.324 156.71ZM161.874 152.93L160.942 153.291L160.947 153.304L160.952 153.317L161.874 152.93ZM161.034 131H154.734V133H161.034V131ZM155.734 132V125.7H153.734V132H155.734ZM154.734 126.7H161.034V124.7H154.734V126.7ZM162.034 125.7V114.5H160.034V125.7H162.034ZM161.034 115.5H167.334V113.5H161.034V115.5ZM166.334 114.5V125.7H168.334V114.5H166.334ZM167.334 126.7H174.334V124.7H167.334V126.7ZM173.334 125.7V132H175.334V125.7H173.334ZM174.334 131H167.334V133H174.334V131ZM166.334 132V148.1H168.334V132H166.334ZM166.334 148.1C166.334 149.939 166.967 151.527 168.237 152.797L169.651 151.383C168.775 150.506 168.334 149.435 168.334 148.1H166.334ZM168.237 152.797C169.507 154.067 171.096 154.7 172.934 154.7V152.7C171.6 152.7 170.528 152.259 169.651 151.383L168.237 152.797ZM172.934 154.7H176.434V152.7H172.934V154.7ZM175.434 153.7V160H177.434V153.7H175.434ZM176.434 159H172.934V161H176.434V159ZM172.934 159C171.267 159 169.782 158.737 168.465 158.227L167.743 160.093C169.32 160.703 171.055 161 172.934 161V159ZM168.491 158.238C167.151 157.676 165.996 156.925 165.016 155.987L163.633 157.433C164.8 158.549 166.165 159.431 167.718 160.082L168.491 158.238ZM165.047 156.019C164.11 155.039 163.359 153.883 162.797 152.543L160.952 153.317C161.603 154.87 162.486 156.235 163.602 157.401L165.047 156.019ZM162.807 152.569C162.297 151.253 162.034 149.767 162.034 148.1H160.034C160.034 149.979 160.331 151.714 160.942 153.291L162.807 152.569ZM162.034 148.1V132H160.034V148.1H162.034ZM205.576 153L204.652 152.619L204.647 152.631L204.642 152.643L205.576 153ZM202.916 157.13L203.623 157.837L203.623 157.837L202.916 157.13ZM198.856 159.79L199.213 160.724L199.225 160.72L199.237 160.715L198.856 159.79ZM188.356 159.79L187.976 160.715L187.987 160.72L187.999 160.724L188.356 159.79ZM184.226 157.13L183.505 157.823L183.519 157.837L183.534 157.851L184.226 157.13ZM181.566 153L180.632 153.357L180.637 153.369L180.642 153.381L181.566 153ZM181.566 132.7L180.642 132.319L180.637 132.331L180.632 132.343L181.566 132.7ZM184.226 128.64L184.933 129.347L184.933 129.347L184.226 128.64ZM188.356 125.98L188.713 126.914L188.725 126.91L188.737 126.905L188.356 125.98ZM198.856 125.98L198.476 126.905L198.487 126.91L198.499 126.914L198.856 125.98ZM202.916 128.64L202.195 129.333L202.209 129.347L202.224 129.361L202.916 128.64ZM205.576 132.7L204.642 133.057L204.647 133.069L204.652 133.081L205.576 132.7ZM188.776 152.58L188.056 153.274L188.069 153.287L188.083 153.3L188.776 152.58ZM198.366 152.58L197.659 151.873L197.659 151.873L198.366 152.58ZM198.366 133.19L197.646 133.884L197.659 133.897L197.673 133.91L198.366 133.19ZM188.776 133.19L189.483 133.897L189.483 133.897L188.776 133.19ZM205.556 147.75C205.556 149.548 205.25 151.167 204.652 152.619L206.501 153.381C207.209 151.66 207.556 149.779 207.556 147.75H205.556ZM204.642 152.643C204.084 154.102 203.273 155.359 202.209 156.423L203.623 157.837C204.892 156.568 205.855 155.071 206.51 153.357L204.642 152.643ZM202.209 156.423C201.19 157.442 199.95 158.258 198.476 158.865L199.237 160.715C200.935 160.015 202.402 159.058 203.623 157.837L202.209 156.423ZM198.499 158.856C197.04 159.414 195.413 159.7 193.606 159.7V161.7C195.626 161.7 197.499 161.379 199.213 160.724L198.499 158.856ZM193.606 159.7C191.8 159.7 190.173 159.414 188.713 158.856L187.999 160.724C189.713 161.379 191.586 161.7 193.606 161.7V159.7ZM188.737 158.865C187.259 158.257 185.99 157.437 184.919 156.409L183.534 157.851C184.796 159.063 186.28 160.017 187.976 160.715L188.737 158.865ZM184.948 156.437C183.92 155.366 183.1 154.097 182.491 152.619L180.642 153.381C181.34 155.076 182.293 156.56 183.505 157.823L184.948 156.437ZM182.5 152.643C181.942 151.184 181.656 149.557 181.656 147.75H179.656C179.656 149.77 179.977 151.643 180.632 153.357L182.5 152.643ZM181.656 147.75V137.95H179.656V147.75H181.656ZM181.656 137.95C181.656 136.143 181.942 134.516 182.5 133.057L180.632 132.343C179.977 134.057 179.656 135.93 179.656 137.95H181.656ZM182.491 133.081C183.098 131.606 183.914 130.366 184.933 129.347L183.519 127.933C182.298 129.154 181.341 130.621 180.642 132.319L182.491 133.081ZM184.933 129.347C185.998 128.283 187.254 127.472 188.713 126.914L187.999 125.046C186.285 125.701 184.788 126.664 183.519 127.933L184.933 129.347ZM188.737 126.905C190.19 126.306 191.809 126 193.606 126V124C191.577 124 189.696 124.347 187.976 125.055L188.737 126.905ZM193.606 126C195.404 126 197.023 126.306 198.476 126.905L199.237 125.055C197.516 124.347 195.635 124 193.606 124V126ZM198.499 126.914C199.955 127.471 201.182 128.278 202.195 129.333L203.638 127.947C202.41 126.669 200.931 125.703 199.213 125.046L198.499 126.914ZM202.224 129.361C203.279 130.374 204.085 131.601 204.642 133.057L206.51 132.343C205.854 130.626 204.887 129.146 203.609 127.919L202.224 129.361ZM204.652 133.081C205.25 134.533 205.556 136.152 205.556 137.95H207.556C207.556 135.921 207.209 134.04 206.501 132.319L204.652 133.081ZM205.556 137.95V147.75H207.556V137.95H205.556ZM185.956 147.75C185.956 149.935 186.641 151.804 188.056 153.274L189.497 151.886C188.485 150.836 187.956 149.485 187.956 147.75H185.956ZM188.083 153.3C189.552 154.715 191.421 155.4 193.606 155.4V153.4C191.871 153.4 190.521 152.871 189.47 151.86L188.083 153.3ZM193.606 155.4C195.79 155.4 197.645 154.715 199.073 153.287L197.659 151.873C196.66 152.872 195.342 153.4 193.606 153.4V155.4ZM199.073 153.287C200.541 151.82 201.256 149.946 201.256 147.75H199.256C199.256 149.474 198.712 150.82 197.659 151.873L199.073 153.287ZM201.256 147.75V137.95H199.256V147.75H201.256ZM201.256 137.95C201.256 135.754 200.54 133.895 199.06 132.47L197.673 133.91C198.712 134.912 199.256 136.226 199.256 137.95H201.256ZM199.087 132.496C197.661 131.016 195.802 130.3 193.606 130.3V132.3C195.33 132.3 196.645 132.844 197.646 133.884L199.087 132.496ZM193.606 130.3C191.41 130.3 189.536 131.016 188.069 132.483L189.483 133.897C190.536 132.844 191.882 132.3 193.606 132.3V130.3ZM188.069 132.483C186.641 133.911 185.956 135.766 185.956 137.95H187.956C187.956 136.214 188.485 134.896 189.483 133.897L188.069 132.483ZM185.956 137.95V147.75H187.956V137.95H185.956ZM222.427 128.5L221.646 127.875L221.638 127.886L222.427 128.5ZM223.967 127.03L223.376 126.224L223.362 126.233L223.349 126.244L223.967 127.03ZM226.487 125.63L226.108 124.704L226.101 124.708L226.093 124.711L226.487 125.63ZM233.837 125.91L233.345 126.781L233.36 126.789L233.375 126.797L233.837 125.91ZM236.567 127.8L237.274 127.093L237.263 127.081L237.251 127.07L236.567 127.8ZM238.737 130.6L237.876 131.109L238.651 132.419L239.546 131.188L238.737 130.6ZM241.257 127.8L240.595 127.05L240.588 127.057L241.257 127.8ZM244.197 125.91L244.63 126.812L244.644 126.805L244.658 126.797L244.197 125.91ZM251.967 125.91L251.52 126.804L251.534 126.811L251.548 126.818L251.967 125.91ZM255.187 128.36L254.433 129.016L254.448 129.034L254.464 129.05L255.187 128.36ZM257.497 132.14L256.561 132.491L256.565 132.501L257.497 132.14ZM258.337 160V161H259.337V160H258.337ZM252.037 160H251.037V161H252.037V160ZM250.427 132.91L249.704 133.601L249.712 133.609L249.72 133.617L250.427 132.91ZM244.127 131.86L244.553 132.765L244.553 132.765L244.127 131.86ZM242.027 133.05L241.458 132.228L241.447 132.236L241.436 132.244L242.027 133.05ZM240.137 134.8L239.378 134.149L239.137 134.43V134.8H240.137ZM240.137 160V161H241.137V160H240.137ZM233.837 160H232.837V161H233.837V160ZM232.227 132.91L231.504 133.601L231.512 133.609L231.52 133.617L232.227 132.91ZM225.927 131.86L226.353 132.765L226.353 132.765L225.927 131.86ZM223.827 133.05L223.258 132.228L223.247 132.236L223.236 132.244L223.827 133.05ZM221.937 134.8L221.178 134.149L220.937 134.43V134.8H221.937ZM221.937 160V161H222.937V160H221.937ZM215.637 160H214.637V161H215.637V160ZM215.637 132H216.637V131H215.637V132ZM210.737 132H209.737V133H210.737V132ZM210.737 125.7V124.7H209.737V125.7H210.737ZM221.937 125.7H222.937V124.7H221.937V125.7ZM222.937 129.2C222.937 129.269 222.93 129.327 222.923 129.367C222.915 129.409 222.906 129.444 222.899 129.469C222.885 129.518 222.869 129.555 222.861 129.575C222.852 129.596 222.844 129.611 222.84 129.619C222.835 129.627 222.832 129.633 222.832 129.634C222.831 129.634 222.844 129.613 222.879 129.563C222.946 129.468 223.056 129.32 223.216 129.114L221.638 127.886C221.471 128.1 221.337 128.279 221.24 128.417C221.194 128.483 221.145 128.556 221.104 128.626C221.084 128.66 221.055 128.712 221.029 128.773C221.018 128.796 220.937 128.97 220.937 129.2H222.937ZM223.208 129.125C223.519 128.736 223.97 128.299 224.585 127.816L223.349 126.244C222.657 126.788 222.082 127.331 221.646 127.875L223.208 129.125ZM224.558 127.836C225.185 127.377 225.956 126.946 226.881 126.549L226.093 124.711C225.059 125.154 224.149 125.656 223.376 126.224L224.558 127.836ZM226.866 126.556C227.753 126.193 228.788 126 229.987 126V124C228.573 124 227.275 124.227 226.108 124.704L226.866 126.556ZM229.987 126C231.344 126 232.451 126.275 233.345 126.781L234.329 125.039C233.077 124.332 231.617 124 229.987 124V126ZM233.375 126.797C234.382 127.322 235.214 127.902 235.883 128.53L237.251 127.07C236.427 126.298 235.439 125.618 234.3 125.023L233.375 126.797ZM235.86 128.507C236.64 129.287 237.312 130.154 237.876 131.109L239.598 130.091C238.949 128.993 238.174 127.993 237.274 127.093L235.86 128.507ZM239.546 131.188C240.252 130.217 241.045 129.336 241.926 128.543L240.588 127.057C239.602 127.944 238.716 128.929 237.928 130.012L239.546 131.188ZM241.919 128.55C242.63 127.922 243.528 127.34 244.63 126.812L243.764 125.008C242.533 125.6 241.471 126.278 240.595 127.05L241.919 128.55ZM244.658 126.797C245.664 126.274 246.832 126 248.187 126V124C246.555 124 245.063 124.332 243.736 125.023L244.658 126.797ZM248.187 126C249.333 126 250.44 126.264 251.52 126.804L252.414 125.016C251.068 124.342 249.655 124 248.187 124V126ZM251.548 126.818C252.625 127.315 253.586 128.043 254.433 129.016L255.942 127.704C254.922 126.531 253.736 125.625 252.386 125.002L251.548 126.818ZM254.464 129.05C255.34 129.968 256.042 131.108 256.561 132.491L258.433 131.789C257.832 130.185 256.994 128.805 255.91 127.67L254.464 129.05ZM256.565 132.501C257.075 133.82 257.337 135.283 257.337 136.9H259.337C259.337 135.064 259.039 133.353 258.43 131.779L256.565 132.501ZM257.337 136.9V160H259.337V136.9H257.337ZM258.337 159H252.037V161H258.337V159ZM253.037 160V136.9H251.037V160H253.037ZM253.037 136.9C253.037 135.061 252.404 133.473 251.134 132.203L249.72 133.617C250.597 134.494 251.037 135.565 251.037 136.9H253.037ZM251.15 132.219C249.947 130.962 248.478 130.3 246.787 130.3V132.3C247.896 132.3 248.854 132.712 249.704 133.601L251.15 132.219ZM246.787 130.3C245.677 130.3 244.643 130.512 243.701 130.955L244.553 132.765C245.198 132.461 245.937 132.3 246.787 132.3V130.3ZM243.701 130.955C242.867 131.348 242.118 131.771 241.458 132.228L242.596 133.872C243.15 133.489 243.801 133.119 244.553 132.765L243.701 130.955ZM241.436 132.244C240.675 132.802 239.988 133.437 239.378 134.149L240.896 135.451C241.406 134.856 241.98 134.325 242.618 133.856L241.436 132.244ZM239.137 134.8V160H241.137V134.8H239.137ZM240.137 159H233.837V161H240.137V159ZM234.837 160V136.9H232.837V160H234.837ZM234.837 136.9C234.837 135.061 234.204 133.473 232.934 132.203L231.52 133.617C232.397 134.494 232.837 135.565 232.837 136.9H234.837ZM232.95 132.219C231.747 130.962 230.278 130.3 228.587 130.3V132.3C229.696 132.3 230.654 132.712 231.504 133.601L232.95 132.219ZM228.587 130.3C227.477 130.3 226.443 130.512 225.501 130.955L226.353 132.765C226.998 132.461 227.737 132.3 228.587 132.3V130.3ZM225.501 130.955C224.667 131.348 223.918 131.771 223.258 132.228L224.396 133.872C224.95 133.489 225.601 133.119 226.353 132.765L225.501 130.955ZM223.236 132.244C222.475 132.802 221.788 133.437 221.178 134.149L222.696 135.451C223.206 134.856 223.78 134.325 224.418 133.856L223.236 132.244ZM220.937 134.8V160H222.937V134.8H220.937ZM221.937 159H215.637V161H221.937V159ZM216.637 160V132H214.637V160H216.637ZM215.637 131H210.737V133H215.637V131ZM211.737 132V125.7H209.737V132H211.737ZM210.737 126.7H221.937V124.7H210.737V126.7ZM220.937 125.7V129.2H222.937V125.7H220.937Z" fill="#1D1D1F"/>
<rect x="80" width="180" height="90" fill="#D9CCC1"/>
<path d="M0 180H180V270H0V180Z" fill="#EBC686"/>
<path d="M156.763 66.5493V32.0325C156.763 30.9097 155.86 30 154.746 30H104.984C103.871 30 102.967 30.9097 102.967 32.0325V66.5493H95V68.8271C95.2601 69.1319 96.5544 70.0739 100.135 69.9954L158.833 69.9715C158.833 69.9715 163.415 70.0381 165 68.8271V66.5493H156.763ZM129.865 31.4949C130.024 31.4949 130.152 31.6246 130.152 31.7844C130.152 31.9442 130.024 32.0731 129.865 32.0731C129.707 32.0731 129.579 31.9442 129.579 31.7844C129.579 31.6246 129.707 31.4949 129.865 31.4949ZM105.906 33.0837H153.824V63.5006H105.906V33.0837ZM135.025 66.9873C135.025 67.3356 134.745 67.6181 134.399 67.6181H124.94C124.595 67.6181 124.314 67.3356 124.314 66.9873V66.5843H135.025V66.9873ZM160.819 67.7583H158.401C158.358 67.7583 158.323 67.7232 158.323 67.6791C158.323 67.6356 158.358 67.6006 158.401 67.6006H160.819C160.862 67.6006 160.897 67.6356 160.897 67.6791C160.897 67.7232 160.862 67.7583 160.819 67.7583Z" fill="#212121"/>
<path d="M138.594 50.2C138.594 51.8197 138.115 53.403 137.216 54.7497C136.318 56.0964 135.042 57.146 133.548 57.7658C132.054 58.3856 130.411 58.5478 128.825 58.2318C127.24 57.9158 125.783 57.1359 124.64 55.9906C123.497 54.8453 122.719 53.3862 122.403 51.7976C122.088 50.2091 122.25 48.5625 122.868 47.0661C123.487 45.5697 124.535 44.2908 125.879 43.3909C127.223 42.4911 128.803 42.0108 130.42 42.0108V50.2H138.594Z" fill="#1D1D1F"/>
<path d="M130.929 41.4288C133.097 41.4288 135.176 42.2916 136.709 43.8273C138.242 45.3631 139.103 47.4461 139.103 49.618L130.929 49.618L130.929 41.4288Z" fill="#606060"/>
<path d="M64.6143 208.233V209H59.2334V208.233H64.6143ZM59.3848 208.233V210.748H58.4521L58.4473 208.233H59.3848ZM65.4346 208.233L65.4248 210.743H64.4922V208.233H65.4346ZM63.6914 201.891V202.662H60.5762V201.891H63.6914ZM64.502 201.891V209H63.5645V201.891H64.502ZM60.2539 201.891H61.1963L61.0498 204.752C61.0303 205.182 60.9896 205.579 60.9277 205.943C60.8659 206.305 60.7894 206.635 60.6982 206.935C60.6071 207.234 60.5029 207.503 60.3857 207.74C60.2686 207.975 60.1432 208.178 60.0098 208.351C59.8763 208.52 59.7363 208.66 59.5898 208.771C59.4466 208.878 59.3018 208.954 59.1553 209H58.7256V208.233H59.0283C59.113 208.142 59.209 208.01 59.3164 207.838C59.4271 207.665 59.5361 207.442 59.6436 207.169C59.7542 206.892 59.8503 206.555 59.9316 206.158C60.0163 205.761 60.0732 205.292 60.1025 204.752L60.2539 201.891ZM67.5244 207.369L71.0254 201.891H71.9678V209H71.0254V203.517L67.5244 209H66.5869V201.891H67.5244V207.369ZM75.8594 205.587H75.0146V204.986H75.8252C76.1833 204.986 76.473 204.936 76.6943 204.835C76.9157 204.734 77.0768 204.594 77.1777 204.415C77.2786 204.236 77.3291 204.029 77.3291 203.795C77.3291 203.57 77.2738 203.365 77.1631 203.18C77.0524 202.991 76.8815 202.841 76.6504 202.73C76.4193 202.617 76.1214 202.56 75.7568 202.56C75.4834 202.56 75.236 202.612 75.0146 202.716C74.7933 202.817 74.6175 202.958 74.4873 203.141C74.3571 203.32 74.292 203.526 74.292 203.761H73.3496C73.3496 203.458 73.4131 203.186 73.54 202.945C73.667 202.701 73.8411 202.494 74.0625 202.325C74.2839 202.153 74.5394 202.021 74.8291 201.93C75.1221 201.839 75.4313 201.793 75.7568 201.793C76.1377 201.793 76.4827 201.837 76.792 201.925C77.1012 202.009 77.3665 202.136 77.5879 202.306C77.8092 202.475 77.9785 202.685 78.0957 202.936C78.2129 203.186 78.2715 203.478 78.2715 203.81C78.2715 204.054 78.2145 204.283 78.1006 204.498C77.9867 204.713 77.8239 204.902 77.6123 205.064C77.4007 205.227 77.1468 205.356 76.8506 205.45C76.5544 205.541 76.224 205.587 75.8594 205.587ZM75.0146 205.172H75.8594C76.2598 205.172 76.6162 205.213 76.9287 205.294C77.2412 205.375 77.5049 205.494 77.7197 205.65C77.9346 205.807 78.0973 206 78.208 206.231C78.3219 206.459 78.3789 206.721 78.3789 207.018C78.3789 207.35 78.3138 207.644 78.1836 207.901C78.0566 208.159 77.876 208.377 77.6416 208.556C77.4072 208.735 77.1289 208.87 76.8066 208.961C76.4876 209.052 76.1377 209.098 75.7568 209.098C75.4508 209.098 75.1481 209.059 74.8486 208.98C74.5524 208.899 74.2839 208.775 74.043 208.609C73.8021 208.44 73.6084 208.225 73.4619 207.965C73.3187 207.704 73.2471 207.392 73.2471 207.027H74.1895C74.1895 207.265 74.2546 207.483 74.3848 207.682C74.5182 207.88 74.7021 208.04 74.9365 208.16C75.1709 208.277 75.4443 208.336 75.7568 208.336C76.1149 208.336 76.4176 208.281 76.665 208.17C76.9157 208.056 77.1061 207.901 77.2363 207.706C77.3698 207.507 77.4365 207.285 77.4365 207.037C77.4365 206.819 77.4007 206.63 77.3291 206.471C77.2607 206.308 77.1582 206.174 77.0215 206.07C76.888 205.966 76.7204 205.89 76.5186 205.841C76.32 205.789 76.0889 205.763 75.8252 205.763H75.0146V205.172ZM82.251 202.521L79.8975 209H78.9355L81.6455 201.891H82.2656L82.251 202.521ZM84.2236 209L81.8652 202.521L81.8506 201.891H82.4707L85.1904 209H84.2236ZM84.1016 206.368V207.14H80.1074V206.368H84.1016ZM87.124 207.369L90.625 201.891H91.5674V209H90.625V203.517L87.124 209H86.1865V201.891H87.124V207.369ZM89.624 200.128H90.3564C90.3564 200.382 90.2979 200.608 90.1807 200.807C90.0635 201.002 89.8958 201.155 89.6777 201.266C89.4596 201.376 89.2008 201.432 88.9014 201.432C88.4489 201.432 88.0908 201.311 87.8271 201.07C87.5667 200.826 87.4365 200.512 87.4365 200.128H88.1689C88.1689 200.32 88.2243 200.489 88.335 200.636C88.4456 200.782 88.6344 200.855 88.9014 200.855C89.1618 200.855 89.3473 200.782 89.458 200.636C89.5687 200.489 89.624 200.32 89.624 200.128ZM97.9248 204.947V205.714H94.0771V204.947H97.9248ZM94.2236 201.891V209H93.2812V201.891H94.2236ZM98.7451 201.891V209H97.8076V201.891H98.7451ZM103.882 207.369L107.383 201.891H108.325V209H107.383V203.517L103.882 209H102.944V201.891H103.882V207.369ZM115.054 205.675H113.252L113.242 204.918H114.878C115.148 204.918 115.384 204.872 115.586 204.781C115.788 204.69 115.944 204.56 116.055 204.391C116.169 204.218 116.226 204.013 116.226 203.775C116.226 203.515 116.175 203.303 116.074 203.141C115.977 202.975 115.825 202.854 115.62 202.779C115.418 202.701 115.161 202.662 114.849 202.662H113.462V209H112.52V201.891H114.849C115.213 201.891 115.539 201.928 115.825 202.003C116.112 202.075 116.354 202.188 116.553 202.345C116.755 202.498 116.908 202.693 117.012 202.931C117.116 203.168 117.168 203.453 117.168 203.785C117.168 204.078 117.093 204.343 116.943 204.581C116.794 204.815 116.585 205.007 116.318 205.157C116.055 205.307 115.745 205.403 115.391 205.445L115.054 205.675ZM115.01 209H112.881L113.413 208.233H115.01C115.309 208.233 115.563 208.181 115.771 208.077C115.983 207.973 116.144 207.826 116.255 207.638C116.366 207.446 116.421 207.219 116.421 206.959C116.421 206.695 116.374 206.467 116.279 206.275C116.185 206.083 116.037 205.935 115.835 205.831C115.633 205.727 115.373 205.675 115.054 205.675H113.711L113.721 204.918H115.557L115.757 205.191C116.099 205.221 116.388 205.318 116.626 205.484C116.864 205.647 117.044 205.855 117.168 206.109C117.295 206.363 117.358 206.643 117.358 206.949C117.358 207.392 117.261 207.766 117.065 208.072C116.873 208.375 116.602 208.606 116.25 208.766C115.898 208.922 115.485 209 115.01 209ZM123.267 208.233V209H119.502V208.233H123.267ZM119.692 201.891V209H118.75V201.891H119.692ZM122.769 204.947V205.714H119.502V204.947H122.769ZM123.218 201.891V202.662H119.502V201.891H123.218ZM127.056 206.212H125.156V205.445H127.056C127.424 205.445 127.721 205.387 127.949 205.27C128.177 205.152 128.343 204.99 128.447 204.781C128.555 204.573 128.608 204.335 128.608 204.068C128.608 203.824 128.555 203.595 128.447 203.38C128.343 203.165 128.177 202.993 127.949 202.862C127.721 202.729 127.424 202.662 127.056 202.662H125.376V209H124.434V201.891H127.056C127.593 201.891 128.047 201.983 128.418 202.169C128.789 202.354 129.071 202.612 129.263 202.94C129.455 203.266 129.551 203.639 129.551 204.059C129.551 204.514 129.455 204.903 129.263 205.226C129.071 205.548 128.789 205.794 128.418 205.963C128.047 206.129 127.593 206.212 127.056 206.212ZM135.034 206.739H135.972C135.923 207.188 135.794 207.59 135.586 207.945C135.378 208.3 135.083 208.582 134.702 208.79C134.321 208.995 133.846 209.098 133.276 209.098C132.86 209.098 132.48 209.02 132.139 208.863C131.8 208.707 131.509 208.486 131.265 208.199C131.021 207.91 130.832 207.563 130.698 207.159C130.568 206.752 130.503 206.3 130.503 205.802V205.094C130.503 204.596 130.568 204.145 130.698 203.741C130.832 203.334 131.022 202.986 131.27 202.696C131.52 202.407 131.821 202.184 132.173 202.027C132.524 201.871 132.92 201.793 133.359 201.793C133.896 201.793 134.351 201.894 134.722 202.096C135.093 202.298 135.381 202.577 135.586 202.936C135.794 203.29 135.923 203.702 135.972 204.171H135.034C134.989 203.839 134.904 203.554 134.78 203.316C134.657 203.076 134.481 202.89 134.253 202.76C134.025 202.63 133.727 202.564 133.359 202.564C133.044 202.564 132.765 202.625 132.524 202.745C132.287 202.866 132.087 203.036 131.924 203.258C131.764 203.479 131.644 203.744 131.562 204.054C131.481 204.363 131.44 204.706 131.44 205.084V205.802C131.44 206.15 131.476 206.477 131.548 206.783C131.623 207.089 131.735 207.358 131.885 207.589C132.035 207.82 132.225 208.002 132.456 208.136C132.687 208.266 132.961 208.331 133.276 208.331C133.677 208.331 133.996 208.268 134.233 208.141C134.471 208.014 134.65 207.831 134.771 207.594C134.894 207.356 134.982 207.071 135.034 206.739ZM139.736 201.891V209H138.809V201.891H139.736ZM142.021 201.891V202.662H136.528V201.891H142.021ZM144.062 201.891V209H143.12V201.891H144.062ZM148.442 201.891L145.356 205.802H143.687L143.54 205.021H144.795L147.275 201.891H148.442ZM147.495 209L144.824 205.68L145.352 204.854L148.647 209H147.495ZM152.134 202.521L149.78 209H148.818L151.528 201.891H152.148L152.134 202.521ZM154.106 209L151.748 202.521L151.733 201.891H152.354L155.073 209H154.106ZM153.984 206.368V207.14H149.99V206.368H153.984ZM162.798 206.739H163.735C163.687 207.188 163.558 207.59 163.35 207.945C163.141 208.3 162.847 208.582 162.466 208.79C162.085 208.995 161.61 209.098 161.04 209.098C160.623 209.098 160.244 209.02 159.902 208.863C159.564 208.707 159.272 208.486 159.028 208.199C158.784 207.91 158.595 207.563 158.462 207.159C158.332 206.752 158.267 206.3 158.267 205.802V205.094C158.267 204.596 158.332 204.145 158.462 203.741C158.595 203.334 158.786 202.986 159.033 202.696C159.284 202.407 159.585 202.184 159.937 202.027C160.288 201.871 160.684 201.793 161.123 201.793C161.66 201.793 162.114 201.894 162.485 202.096C162.856 202.298 163.145 202.577 163.35 202.936C163.558 203.29 163.687 203.702 163.735 204.171H162.798C162.752 203.839 162.668 203.554 162.544 203.316C162.42 203.076 162.244 202.89 162.017 202.76C161.789 202.63 161.491 202.564 161.123 202.564C160.807 202.564 160.529 202.625 160.288 202.745C160.05 202.866 159.85 203.036 159.688 203.258C159.528 203.479 159.408 203.744 159.326 204.054C159.245 204.363 159.204 204.706 159.204 205.084V205.802C159.204 206.15 159.24 206.477 159.312 206.783C159.386 207.089 159.499 207.358 159.648 207.589C159.798 207.82 159.989 208.002 160.22 208.136C160.451 208.266 160.724 208.331 161.04 208.331C161.44 208.331 161.759 208.268 161.997 208.141C162.235 208.014 162.414 207.831 162.534 207.594C162.658 207.356 162.746 207.071 162.798 206.739ZM167.651 202.521L165.298 209H164.336L167.046 201.891H167.666L167.651 202.521ZM169.624 209L167.266 202.521L167.251 201.891H167.871L170.591 209H169.624ZM169.502 206.368V207.14H165.508V206.368H169.502ZM172.524 207.369L176.025 201.891H176.968V209H176.025V203.517L172.524 209H171.587V201.891H172.524V207.369ZM175.024 200.128H175.757C175.757 200.382 175.698 200.608 175.581 200.807C175.464 201.002 175.296 201.155 175.078 201.266C174.86 201.376 174.601 201.432 174.302 201.432C173.849 201.432 173.491 201.311 173.228 201.07C172.967 200.826 172.837 200.512 172.837 200.128H173.569C173.569 200.32 173.625 200.489 173.735 200.636C173.846 200.782 174.035 200.855 174.302 200.855C174.562 200.855 174.748 200.782 174.858 200.636C174.969 200.489 175.024 200.32 175.024 200.128ZM181.309 201.891V209H180.381V201.891H181.309ZM183.594 201.891V202.662H178.101V201.891H183.594ZM189.985 205.221V205.67C189.985 206.204 189.919 206.682 189.785 207.105C189.652 207.529 189.46 207.888 189.209 208.185C188.958 208.481 188.657 208.707 188.306 208.863C187.957 209.02 187.567 209.098 187.134 209.098C186.714 209.098 186.328 209.02 185.977 208.863C185.628 208.707 185.326 208.481 185.068 208.185C184.814 207.888 184.618 207.529 184.478 207.105C184.338 206.682 184.268 206.204 184.268 205.67V205.221C184.268 204.687 184.336 204.21 184.473 203.79C184.613 203.367 184.81 203.007 185.063 202.711C185.317 202.411 185.618 202.184 185.967 202.027C186.318 201.871 186.704 201.793 187.124 201.793C187.557 201.793 187.948 201.871 188.296 202.027C188.647 202.184 188.949 202.411 189.199 202.711C189.453 203.007 189.647 203.367 189.78 203.79C189.917 204.21 189.985 204.687 189.985 205.221ZM189.053 205.67V205.211C189.053 204.788 189.009 204.413 188.921 204.088C188.836 203.762 188.711 203.489 188.545 203.268C188.379 203.046 188.175 202.879 187.935 202.765C187.697 202.651 187.427 202.594 187.124 202.594C186.831 202.594 186.566 202.651 186.328 202.765C186.094 202.879 185.892 203.046 185.723 203.268C185.557 203.489 185.428 203.762 185.337 204.088C185.246 204.413 185.2 204.788 185.2 205.211V205.67C185.2 206.096 185.246 206.474 185.337 206.803C185.428 207.128 185.558 207.403 185.728 207.628C185.9 207.849 186.104 208.017 186.338 208.131C186.576 208.245 186.841 208.302 187.134 208.302C187.44 208.302 187.712 208.245 187.949 208.131C188.187 208.017 188.387 207.849 188.55 207.628C188.716 207.403 188.841 207.128 188.926 206.803C189.01 206.474 189.053 206.096 189.053 205.67ZM193.931 205.675H192.129L192.119 204.918H193.755C194.025 204.918 194.261 204.872 194.463 204.781C194.665 204.69 194.821 204.56 194.932 204.391C195.046 204.218 195.103 204.013 195.103 203.775C195.103 203.515 195.052 203.303 194.951 203.141C194.854 202.975 194.702 202.854 194.497 202.779C194.295 202.701 194.038 202.662 193.726 202.662H192.339V209H191.396V201.891H193.726C194.09 201.891 194.416 201.928 194.702 202.003C194.989 202.075 195.231 202.188 195.43 202.345C195.632 202.498 195.785 202.693 195.889 202.931C195.993 203.168 196.045 203.453 196.045 203.785C196.045 204.078 195.97 204.343 195.82 204.581C195.671 204.815 195.462 205.007 195.195 205.157C194.932 205.307 194.622 205.403 194.268 205.445L193.931 205.675ZM193.887 209H191.758L192.29 208.233H193.887C194.186 208.233 194.44 208.181 194.648 208.077C194.86 207.973 195.021 207.826 195.132 207.638C195.243 207.446 195.298 207.219 195.298 206.959C195.298 206.695 195.251 206.467 195.156 206.275C195.062 206.083 194.914 205.935 194.712 205.831C194.51 205.727 194.25 205.675 193.931 205.675H192.588L192.598 204.918H194.434L194.634 205.191C194.976 205.221 195.265 205.318 195.503 205.484C195.741 205.647 195.921 205.855 196.045 206.109C196.172 206.363 196.235 206.643 196.235 206.949C196.235 207.392 196.138 207.766 195.942 208.072C195.75 208.375 195.479 208.606 195.127 208.766C194.775 208.922 194.362 209 193.887 209Z" fill="#1D1D1F"/>
<path d="M123.431 238.447V239H118.538V238.5L121.1 235.595C121.419 235.233 121.673 234.916 121.863 234.644C122.053 234.368 122.189 234.118 122.271 233.892C122.357 233.663 122.4 233.441 122.4 233.226C122.4 232.911 122.337 232.633 122.212 232.394C122.09 232.154 121.908 231.966 121.664 231.83C121.421 231.694 121.12 231.625 120.762 231.625C120.404 231.625 120.092 231.702 119.827 231.856C119.562 232.01 119.358 232.225 119.215 232.501C119.075 232.773 119.005 233.083 119.005 233.43H118.366C118.366 233 118.461 232.607 118.651 232.249C118.844 231.89 119.12 231.606 119.478 231.395C119.836 231.18 120.264 231.072 120.762 231.072C121.234 231.072 121.641 231.156 121.981 231.325C122.321 231.489 122.583 231.728 122.765 232.039C122.951 232.351 123.044 232.727 123.044 233.167C123.044 233.403 123.001 233.641 122.916 233.881C122.833 234.121 122.719 234.361 122.572 234.601C122.429 234.837 122.264 235.072 122.078 235.305C121.895 235.537 121.703 235.767 121.503 235.992L119.322 238.447H123.431ZM129.35 234.418V235.734C129.35 236.307 129.296 236.807 129.189 237.233C129.082 237.655 128.924 238.006 128.716 238.286C128.512 238.561 128.262 238.767 127.964 238.903C127.671 239.039 127.334 239.107 126.955 239.107C126.654 239.107 126.378 239.064 126.127 238.979C125.877 238.893 125.653 238.762 125.456 238.586C125.263 238.407 125.098 238.184 124.962 237.915C124.826 237.646 124.722 237.331 124.65 236.97C124.579 236.604 124.543 236.193 124.543 235.734V234.418C124.543 233.842 124.597 233.344 124.704 232.925C124.815 232.506 124.973 232.159 125.177 231.883C125.384 231.608 125.637 231.403 125.934 231.271C126.231 231.135 126.568 231.067 126.944 231.067C127.245 231.067 127.52 231.112 127.771 231.201C128.025 231.287 128.249 231.416 128.442 231.588C128.639 231.76 128.804 231.98 128.937 232.249C129.073 232.514 129.175 232.827 129.243 233.188C129.314 233.55 129.35 233.96 129.35 234.418ZM128.711 235.81V234.338C128.711 233.983 128.686 233.661 128.636 233.371C128.589 233.081 128.519 232.827 128.426 232.608C128.333 232.39 128.215 232.207 128.072 232.061C127.932 231.914 127.767 231.805 127.578 231.733C127.391 231.658 127.18 231.62 126.944 231.62C126.654 231.62 126.398 231.679 126.176 231.797C125.957 231.912 125.775 232.084 125.628 232.313C125.481 232.539 125.37 232.821 125.295 233.162C125.223 233.502 125.188 233.894 125.188 234.338V235.81C125.188 236.16 125.211 236.481 125.257 236.771C125.304 237.057 125.375 237.312 125.472 237.534C125.569 237.756 125.687 237.944 125.827 238.098C125.97 238.248 126.135 238.363 126.321 238.441C126.511 238.517 126.722 238.554 126.955 238.554C127.252 238.554 127.51 238.495 127.728 238.377C127.946 238.255 128.129 238.078 128.276 237.845C128.423 237.609 128.532 237.321 128.604 236.98C128.675 236.637 128.711 236.246 128.711 235.81ZM135.634 238.447V239H130.741V238.5L133.303 235.595C133.622 235.233 133.876 234.916 134.066 234.644C134.256 234.368 134.392 234.118 134.474 233.892C134.56 233.663 134.603 233.441 134.603 233.226C134.603 232.911 134.54 232.633 134.415 232.394C134.293 232.154 134.111 231.966 133.867 231.83C133.624 231.694 133.323 231.625 132.965 231.625C132.607 231.625 132.295 231.702 132.03 231.856C131.765 232.01 131.561 232.225 131.418 232.501C131.278 232.773 131.208 233.083 131.208 233.43H130.569C130.569 233 130.664 232.607 130.854 232.249C131.047 231.89 131.323 231.606 131.681 231.395C132.039 231.18 132.467 231.072 132.965 231.072C133.438 231.072 133.844 231.156 134.184 231.325C134.524 231.489 134.786 231.728 134.968 232.039C135.154 232.351 135.248 232.727 135.248 233.167C135.248 233.403 135.205 233.641 135.119 233.881C135.036 234.121 134.922 234.361 134.775 234.601C134.632 234.837 134.467 235.072 134.281 235.305C134.098 235.537 133.907 235.767 133.706 235.992L131.525 238.447H135.634ZM141.736 238.447V239H136.843V238.5L139.405 235.595C139.723 235.233 139.978 234.916 140.167 234.644C140.357 234.368 140.493 234.118 140.576 233.892C140.662 233.663 140.705 233.441 140.705 233.226C140.705 232.911 140.642 232.633 140.517 232.394C140.395 232.154 140.212 231.966 139.969 231.83C139.725 231.694 139.424 231.625 139.066 231.625C138.708 231.625 138.397 231.702 138.132 231.856C137.867 232.01 137.663 232.225 137.52 232.501C137.38 232.773 137.31 233.083 137.31 233.43H136.671C136.671 233 136.766 232.607 136.956 232.249C137.149 231.89 137.425 231.606 137.783 231.395C138.141 231.18 138.569 231.072 139.066 231.072C139.539 231.072 139.945 231.156 140.286 231.325C140.626 231.489 140.887 231.728 141.07 232.039C141.256 232.351 141.349 232.727 141.349 233.167C141.349 233.403 141.306 233.641 141.22 233.881C141.138 234.121 141.023 234.361 140.876 234.601C140.733 234.837 140.569 235.072 140.382 235.305C140.2 235.537 140.008 235.767 139.808 235.992L137.627 238.447H141.736Z" fill="#1D1D1F"/>
<line x1="70" y1="219.5" x2="180" y2="219.5" stroke="#1D1D1F"/>
<line x1="39.5" y1="100" x2="39.5" y2="10" stroke="#1D1D1F"/>
<line x1="219.5" y1="100" x2="219.5" y2="10" stroke="#1D1D1F"/>
<line x1="30" y1="19.5" x2="230" y2="19.5" stroke="#1D1D1F"/>
<line x1="219.5" y1="260" x2="219.5" y2="170" stroke="#1D1D1F"/>
<line x1="39.5044" y1="260" x2="39.5044" y2="170" stroke="#1D1D1F"/>
<path d="M230 250L30 250" stroke="#1D1D1F"/>
</svg>
